<svg width="247" height="177" viewBox="0 0 247 177" fill="none" xmlns="http://www.w3.org/2000/svg">
<path d="M167.603 81.1939C170.943 101.972 167.597 121.788 159.51 137.026C151.423 152.264 138.614 162.898 123.022 165.405C107.429 167.912 91.9327 161.828 79.4775 149.892C67.022 137.957 57.6336 120.188 54.2933 99.4098C50.9529 78.6318 54.2991 58.8159 62.3861 43.5778C70.4729 28.34 83.2817 17.7056 98.8742 15.1989C114.467 12.6922 129.963 18.7761 142.419 30.7115C154.874 42.6472 164.262 60.4159 167.603 81.1939Z" stroke="#919090"/>
<path d="M176.798 78.6555C183.71 121.65 161.761 160.721 128.043 166.141C94.3249 171.562 61.2364 141.34 54.3244 98.3445C47.4124 55.3496 69.3612 16.2791 103.079 10.8585C136.797 5.43793 169.886 35.6605 176.798 78.6555Z" stroke="#919090"/>
<path d="M101.751 43.6428C102.343 48.7597 101.347 53.5493 99.2839 57.1542C97.2204 60.7592 94.1111 63.1498 90.4659 63.5714C86.8207 63.993 83.2478 62.3753 80.4158 59.3365C77.584 56.2978 75.5216 51.8619 74.9297 46.745C74.3379 41.6281 75.3333 36.8385 77.3967 33.2337C79.4602 29.6286 82.5695 27.238 86.2147 26.8164C89.8599 26.3948 93.4329 28.0125 96.2648 31.0513C99.0966 34.09 101.159 38.5259 101.751 43.6428Z" stroke="#919090"/>
<path d="M138.751 48.6428C139.343 53.7597 138.347 58.5493 136.284 62.1542C134.22 65.7592 131.111 68.1498 127.466 68.5714C123.821 68.993 120.248 67.3753 117.416 64.3365C114.584 61.2978 112.522 56.8619 111.93 51.745C111.338 46.6281 112.333 41.8385 114.397 38.2337C116.46 34.6286 119.57 32.238 123.215 31.8164C126.86 31.3948 130.433 33.0125 133.265 36.0513C136.097 39.09 138.159 43.5259 138.751 48.6428Z" stroke="#919090"/>
<path d="M161.751 89.6428C162.343 94.7597 161.347 99.5493 159.284 103.154C157.22 106.759 154.111 109.15 150.466 109.571C146.821 109.993 143.248 108.375 140.416 105.336C137.584 102.298 135.522 97.8619 134.93 92.745C134.338 87.6281 135.333 82.8385 137.397 79.2337C139.46 75.6286 142.57 73.238 146.215 72.8164C149.86 72.3948 153.433 74.0125 156.265 77.0513C159.097 80.09 161.159 84.5259 161.751 89.6428Z" stroke="#919090"/>
<path d="M146.668 143.222C143.65 147.396 139.682 150.257 135.726 151.523C131.77 152.789 127.862 152.453 124.888 150.302C121.915 148.152 120.372 144.546 120.334 140.393C120.297 136.239 121.771 131.575 124.789 127.401C127.808 123.227 131.776 120.366 135.732 119.1C139.688 117.834 143.596 118.17 146.569 120.32C149.543 122.47 151.086 126.076 151.123 130.23C151.16 134.383 149.687 139.048 146.668 143.222Z" stroke="#919090"/>
<path d="M86.6857 138.145C83.6958 133.951 82.2537 129.276 82.319 125.123C82.3844 120.97 83.9521 117.375 86.9402 115.245C89.9282 113.115 93.838 112.805 97.7856 114.098C101.733 115.391 105.682 118.279 108.672 122.473C111.662 126.667 113.104 131.342 113.038 135.495C112.973 139.648 111.405 143.244 108.417 145.374C105.429 147.504 101.519 147.813 97.5717 146.52C93.6243 145.228 89.6757 142.34 86.6857 138.145Z" stroke="#919090"/>
<path d="M61.5987 92.6512C60.3235 87.6605 60.6652 82.7806 62.2246 78.9308C63.7841 75.0808 66.5434 72.2935 70.0987 71.3851C73.6539 70.4767 77.4121 71.5987 80.6273 74.2287C83.8424 76.8586 86.4831 80.9765 87.7583 85.9672C89.0334 90.9579 88.6918 95.8379 87.1323 99.6877C85.5728 103.538 82.8136 106.325 79.2583 107.233C75.703 108.142 71.9449 107.02 68.7296 104.39C65.5146 101.76 62.8739 97.6419 61.5987 92.6512Z" stroke="#919090"/>
<path d="M77.7491 72.2114C70.2578 74.1255 68.3548 81.8848 70.9525 92.0516C73.5502 102.218 80.2495 104.211 85.7496 102.711" stroke="#919090"/>
<path d="M90.25 27.2112C82.7587 29.1254 80.9944 37.4342 83.5921 47.601C86.1898 57.7678 92.8892 59.7607 98.3892 58.2607" stroke="#919090"/>
<path d="M128.25 32.2112C120.759 34.1253 118.994 41.4344 121.592 51.6012C124.19 61.7679 130.889 63.7608 136.389 62.2609" stroke="#919090"/>
<path d="M149.75 73.2112C142.258 75.1254 139.994 83.4344 142.592 93.6012C145.189 103.768 153.749 104.711 159.25 103.211" stroke="#919090"/>
<path d="M143.751 119.211C136.23 117.417 130.857 122.997 128.423 133.204C125.989 143.411 133.25 150.211 142.251 147.711" stroke="#919090"/>
<path d="M93.2506 113.211C88.2502 117.211 87.5661 126.069 93.2506 136.211C96.8935 142.711 113.75 147.711 112.75 131.211" stroke="#919090"/>
<path d="M117.796 89.928C117.967 97.6073 113.139 103.744 107.237 103.876C101.335 104.008 96.2378 98.0918 96.0666 90.4125C95.8954 82.7331 100.724 76.596 106.626 76.4644C112.528 76.3329 117.625 82.2486 117.796 89.928Z" stroke="#919090"/>
<path d="M106.25 76.2112L115.75 76.7112C118.417 78.2112 123.25 83.3112 123.25 89.7112C123.25 96.1112 120.417 101.378 117.75 103.711L106.75 104.211" stroke="#919090"/>
<path d="M109.75 90.7112C109.75 93.3064 108.085 95.2112 106.25 95.2112C104.415 95.2112 102.75 93.3064 102.75 90.7112C102.75 88.1161 104.415 86.2112 106.25 86.2112C108.085 86.2112 109.75 88.1161 109.75 90.7112Z" stroke="#919090"/>
<path d="M112.75 90.7112C112.75 95.5299 109.73 99.2112 106.25 99.2112C102.77 99.2112 99.75 95.5299 99.75 90.7112C99.75 85.8926 102.77 82.2112 106.25 82.2112C109.73 82.2112 112.75 85.8926 112.75 90.7112Z" stroke="#919090"/>
<path d="M201.75 107.711C201.75 107.806 201.704 107.946 201.514 108.126C201.322 108.308 201.017 108.494 200.6 108.661C199.768 108.994 198.583 109.211 197.25 109.211C195.917 109.211 194.732 108.994 193.9 108.661C193.483 108.494 193.178 108.308 192.986 108.126C192.796 107.946 192.75 107.806 192.75 107.711C192.75 107.617 192.796 107.476 192.986 107.296C193.178 107.115 193.483 106.928 193.9 106.761C194.732 106.428 195.917 106.211 197.25 106.211C198.583 106.211 199.768 106.428 200.6 106.761C201.017 106.928 201.322 107.115 201.514 107.296C201.704 107.476 201.75 107.617 201.75 107.711Z" stroke="#919090"/>
<rect x="93.75" y="105.211" width="29" height="28" rx="4.5" fill="#3399DB" stroke="#3399DB"/>
<path d="M122.25 110.211C132.75 111.211 155.25 92.7113 161.75 93.2112" stroke="#3399DB" stroke-width="3"/>
<path d="M197.25 114.711C197.083 120.246 186.25 136.67 171.25 130.243" stroke="#3399DB" stroke-width="3"/>
<path fill-rule="evenodd" clip-rule="evenodd" d="M144.815 126.455C147.329 126.924 149.018 127.267 150.366 127.267L150.554 128.759L150.642 130.261C149.142 130.261 146.784 129.874 144.266 129.405C141.72 128.93 138.858 128.3 136.072 127.675C135.638 127.578 135.206 127.481 134.778 127.384C132.442 126.859 130.202 126.355 128.262 125.963C125.919 125.488 124.174 125.211 123.25 125.211V122.211C124.526 122.211 126.569 122.559 128.857 123.022C130.831 123.422 133.109 123.934 135.444 124.459C135.87 124.555 136.299 124.651 136.728 124.748C139.517 125.373 142.33 125.992 144.815 126.455Z" fill="#3399DB"/>
<path d="M124.25 57.2112L138.75 49.7112M161.25 39.2112L184.25 27.2112C188.583 24.8779 199.45 22.9112 208.25 33.7112C217.05 44.5112 220.917 53.5445 221.75 56.7112M221.75 56.7112L177.25 77.2112M221.75 56.7112L226.75 53.7112C227.917 53.2112 230.15 54.2112 229.75 62.2112C229.35 70.2112 229.583 81.5445 229.75 86.2112M229.75 86.2112L178.75 107.711L197.75 115.211C205.417 112.045 221.35 104.811 223.75 101.211C226.15 97.6112 239.083 95.0445 245.25 94.2112L229.75 86.2112Z" stroke="#919090"/>
<path fill-rule="evenodd" clip-rule="evenodd" d="M161.438 93.6884C161.501 92.307 161.495 90.7519 161.265 89.8325L162.235 89.5899C162.505 90.6704 162.499 92.3653 162.437 93.7338C162.405 94.4298 162.034 95.2533 161.994 95.7112C161.974 95.9403 162.028 95.9785 162.015 96.1074C162.009 96.1719 162.004 96.2222 162 96.2566L161.996 96.2959L161.994 96.31C161.994 96.31 162.247 96.2664 161.75 96.2111L161.253 96.1559L161.254 96.1442L161.258 96.1074C161.261 96.0749 161.266 96.0265 161.273 95.9641C161.285 95.8391 161.303 95.6578 161.322 95.4338C161.361 94.9854 161.407 94.3674 161.438 93.6884Z" fill="#919090"/>
<path d="M178.25 91.2112C183.25 90.7112 196.75 93.2112 197.75 108.711" stroke="#3399DB" stroke-width="3"/>
<path d="M93.75 125.211C65.9167 123.545 8.55 118.111 1.75 109.711" stroke="#3399DB" stroke-width="3"/>
</svg>
