<svg width="280" height="163" viewBox="0 0 280 163" fill="none" xmlns="http://www.w3.org/2000/svg">
<path d="M182 50.25L252.5 41.75" stroke="#919090"/>
<path d="M93 64.25L134 57.75" stroke="#919090"/>
<path d="M137.5 56.75L132 59.25M132 59.25V68.75L158.5 82.75L167 77.75L132 59.25Z" stroke="#919090"/>
<path fill-rule="evenodd" clip-rule="evenodd" d="M116.197 111.714C104.153 109.021 91.9578 104.484 84.3906 101.121L85.609 98.3793C93.0419 101.683 105.046 106.146 116.852 108.786C122.756 110.106 128.562 110.96 133.696 111C138.859 111.041 144.439 110.55 147.5 108.75L146.5 111.75C142.761 113.95 139.066 114.043 133.672 114C128.251 113.957 122.219 113.06 116.197 111.714Z" fill="#3399DB"/>
<path d="M135 11.25L140.5 14.25M135 11.25L166 0.75L170.5 5.25M135 11.25V54.75L170.5 75.75M140.5 14.25L170.5 5.25M140.5 14.25V44.75C140.5 50.25 141.5 54.75 150.5 59.25L173 73.25M170.5 5.25V34.75C171 44.75 173 45.25 185 52.25L192.5 56.75" stroke="#919090"/>
<path d="M78.5 147.75L253.5 93.75" stroke="#919090"/>
<path d="M78.5 162.25L254 107.25" stroke="#919090"/>
<path d="M262.5 14.25L203.5 55.75L206 59.25M206 59.25L266 18.25M206 59.25L218.5 75.75M218.5 75.75L276.5 34.75M218.5 75.75L221 79.25L279.5 38.75" stroke="#919090"/>
<path d="M189 63.75L147 90.75L138 106.75L139 110.25L148 108.75M148 108.75L158 102.75M148 108.75L143 116.25L144.5 118.75L164 117.25L208 88.75M208 88.75L213 89.75L222.5 81.25L200.5 51.75L190.5 58.75L189.5 63.25L195.5 71.5203M208 88.75L203.085 81.9754M195.5 71.5203L190.5 81.25L203.085 81.9754M195.5 71.5203L203.085 81.9754" stroke="#919090" stroke-linecap="square" stroke-linejoin="round"/>
<circle cx="174" cy="92.25" r="13" stroke="#919090"/>
<circle cx="149.5" cy="98.75" r="2.5" stroke="#919090"/>
<circle cx="158.5" cy="112.75" r="2.5" stroke="#919090"/>
<path d="M187 61.25C187 62.2012 186.216 63.197 184.64 63.9848C183.095 64.7576 180.924 65.25 178.5 65.25C176.076 65.25 173.905 64.7576 172.36 63.9848C170.784 63.197 170 62.2012 170 61.25C170 60.2988 170.784 59.303 172.36 58.5152C173.905 57.7424 176.076 57.25 178.5 57.25C180.924 57.25 183.095 57.7424 184.64 58.5152C186.216 59.303 187 60.2988 187 61.25Z" stroke="#919090"/>
<rect x="44.6648" y="76.7045" width="37.8507" height="37.8507" rx="3.5" transform="rotate(-6.8898 44.6648 76.7045)" fill="#3399DB" stroke="#3399DB"/>
<path d="M82.5 82.2501C102.667 64.4167 175.5 35.2503 180 64.75" stroke="#3399DB" stroke-width="3"/>
<path d="M187 60.75C187 63.2353 183.471 65.25 178.5 65.25C173.529 65.25 170 63.7353 170 61.25" stroke="#919090"/>
<path d="M51.5 99.75C39 100.75 6.7 102.15 1.5 97.75" stroke="#3399DB" stroke-width="3"/>
</svg>
