<svg width="221" height="185" viewBox="0 0 221 185" fill="none" xmlns="http://www.w3.org/2000/svg">
<path d="M61.2498 23.0076C65.2498 27.8076 72.9165 28.341 76.2498 28.0076C76.2498 27.1743 78.0498 24.1077 85.25 18.5077C92.4502 12.9077 108.917 16.1744 116.25 18.5077L142.25 16.5077L151.25 14.0077C157.25 20.5077 165.75 21.5077 182.75 16.5077C199.75 11.5077 208.75 25.5077 203.75 31.5077C199.75 36.3077 202.083 42.841 203.75 45.5077C207.75 48.1743 215.95 54.7077 216.75 59.5077C217.55 64.3077 211.75 73.1743 208.75 77.0077C210.75 96.2077 206.25 104.341 203.75 106.008C204.55 112.008 214.75 114.508 219.75 115.008L217.75 135.508C217.25 138.508 217.45 140.808 194.25 144.008C171.05 147.208 158.25 142.674 154.75 140.008H142.25C136.417 141.341 123.05 144.008 116.25 144.008C109.45 144.008 109.417 142.674 110.25 142.008C96.75 137.008 93.75 152.008 88.75 144.008C84.75 137.608 77.0833 131.008 73.75 128.508C54.95 114.108 50.25 92.1743 50.25 83.0077L57.2498 64.5076C47.7498 54.0076 56.2498 17.0076 61.2498 23.0076Z" stroke="#919090" stroke-linecap="square" stroke-linejoin="round"/>
<path d="M35.75 158.508C29.5833 165.341 14.25 179.808 2.25 183.008" stroke="#3399DB" stroke-width="3" stroke-linecap="square" stroke-linejoin="round"/>
<path d="M163.75 129.508L167.25 126.008L165.25 60.5077L162.75 67.0077L163.75 129.508ZM163.75 129.508H149.25L141.75 133.008" stroke="#919090" stroke-linecap="square" stroke-linejoin="round"/>
<path d="M141.749 107.508L140.749 160.508C139.583 163.008 135.549 167.908 128.749 167.508C121.949 167.108 118.249 162.674 117.249 160.508V153.508M117.249 107.508V153.508M117.249 153.508C114.311 153.997 108.397 156.023 107.781 160.241M150.75 160.508C150.75 169.508 138.249 170.508 128.749 171.008C119.249 171.508 107.249 166.008 107.749 160.508C107.758 160.418 107.768 160.329 107.781 160.241M150.75 160.508C150.583 158.841 148.549 155.308 141.749 154.508M150.75 160.508V172.008C148.25 174.174 140.349 178.408 128.749 178.008C117.15 177.608 109.916 173.674 107.749 171.008L107.781 160.241" stroke="#919090" stroke-linecap="square" stroke-linejoin="round"/>
<path d="M66.25 138.008C83.75 131.174 120.15 116.508 121.75 108.508" stroke="#3399DB" stroke-width="3" stroke-linecap="square" stroke-linejoin="round"/>
<path d="M116.25 43.5077H111.25L91.75 92.5077M91.75 92.5077H141.25M91.75 92.5077V97.0077H141.25M141.25 92.5077L158.75 43.5077M141.25 92.5077V97.0077M158.75 43.5077H141.25M158.75 43.5077V48.0077M158.75 48.0077L141.25 97.0077M158.75 48.0077H160.75M143.25 97.0077L160.75 48.0077M143.25 97.0077V103.508M143.25 97.0077H90.25V103.008M160.75 48.0077V55.5077M160.75 55.5077L143.25 103.508M160.75 55.5077H164.75M143.25 103.508L90.25 103.008M143.25 103.508H148.75M90.25 103.008H87.25V107.008H149.25M149.25 107.008L148.75 103.508M149.25 107.008L164.75 60.5077V55.5077M148.75 103.508L164.75 55.5077" stroke="#919090" stroke-linecap="square" stroke-linejoin="round"/>
<path d="M124.25 7.50764C122.25 8.30764 119.083 5.84102 117.75 4.50769V58.0077C119.917 60.0077 125.45 64.0077 130.25 64.0077C135.05 64.0077 139.917 60.0077 141.75 58.0077L140.75 3.50764C137.55 -0.492362 132.75 1.17431 130.75 2.50764C129.417 3.84097 126.25 6.70764 124.25 7.50764Z" fill="white" stroke="#919090" stroke-linecap="square" stroke-linejoin="round"/>
<path d="M127.25 83.5077C127.25 83.8814 126.894 84.3831 125.932 84.8203C125.016 85.2369 123.714 85.5077 122.25 85.5077C120.786 85.5077 119.484 85.2369 118.568 84.8203C117.606 84.3831 117.25 83.8814 117.25 83.5077C117.25 83.134 117.606 82.6323 118.568 82.1951C119.484 81.7785 120.786 81.5077 122.25 81.5077C123.714 81.5077 125.016 81.7785 125.932 82.1951C126.894 82.6323 127.25 83.134 127.25 83.5077Z" stroke="#919090"/>
<rect x="47.086" y="119.715" width="34.2545" height="34" rx="4.5" transform="rotate(46.4188 47.086 119.715)" fill="#3399DB" stroke="#3399DB"/>
<path fill-rule="evenodd" clip-rule="evenodd" d="M83.5894 73.6009C71.1762 85.2598 60.3994 107.474 55.18 123.96L54.7273 125.39L51.8672 124.485L52.3199 123.055C57.6005 106.375 68.5737 83.5884 81.5355 71.4142C88.0132 65.3301 95.2922 61.6206 102.779 63.1635C110.244 64.7019 117.281 71.3365 123.599 84.3525L124.25 85.5077H121.25L120.901 85.6627C114.719 72.9288 108.256 67.3551 102.174 66.1017C96.1139 64.8529 89.7992 67.7684 83.5894 73.6009Z" fill="#3399DB"/>
<path d="M127.25 83.5077C127.25 84.8884 125.288 85.5077 122.25 85.5077C119.212 85.5077 117.25 84.8884 117.25 83.5077" stroke="#919090"/>
</svg>
