<svg width="273" height="163" viewBox="0 0 273 163" fill="none" xmlns="http://www.w3.org/2000/svg">
<path d="M176.538 99.8098C202.897 109.553 203.592 131.762 188.398 143.437C173.767 154.678 132.009 145.125 128.422 141.837" stroke="#3399DB" stroke-width="3"/>
<path d="M92.7441 140.732C67.3348 142.371 13.467 141.42 1.27051 124.503" stroke="#3399DB" stroke-width="3"/>
<path d="M74.1036 93.1689H46.8947C43.7497 91.8966 45.5843 88.4978 46.8947 86.9574C52.4132 78.3348 49.1941 73.0175 46.8947 71.4367L74.1036 72.3393M74.1036 93.1689L78.1519 96.5666M74.1036 93.1689V72.3393M78.1519 96.5666H104.822M78.1519 96.5666V67.9905M104.822 96.5666L109.606 93.1689M104.822 96.5666V67.9905M109.606 93.1689H135.554M109.606 93.1689V72.3393M74.1036 72.3393L78.1519 67.9905M78.1519 67.9905H104.822M104.822 67.9905L109.606 72.3393M109.606 72.3393H134.684" stroke="#919090"/>
<path d="M182.539 72.0918H208.052M208.052 72.0918V93.6109M208.052 72.0918L212.711 68.3204M208.052 93.6109H180.986M208.052 93.6109L212.711 96.9386M212.711 96.9386H238.888M212.711 96.9386V68.3204M238.888 96.9386L243.769 93.6109M238.888 96.9386V68.3204M243.769 93.6109H271.056C271.87 91.2445 272.609 85.7132 269.06 82.5186C265.51 79.324 268.912 74.2363 271.056 72.0918H243.769M243.769 93.6109V72.0918M243.769 72.0918L238.888 68.3204M238.888 68.3204H212.711" stroke="#919090"/>
<circle cx="159.04" cy="62.6845" r="5.94876" stroke="#919090"/>
<circle cx="159.04" cy="103.496" r="5.94876" stroke="#919090"/>
<path d="M157.892 1.29041C152.804 1.2904 149.882 6.00171 149.058 8.35736L149.234 153.583C150.648 156.292 154.676 161.71 159.481 161.71C164.287 161.71 167.019 156.292 167.785 153.583V8.35736C166.607 6.00171 162.98 1.29041 157.892 1.29041Z" stroke="#919090"/>
<path d="M149.292 53.2948C137.961 62.2928 122.098 86.2209 149.292 109.949" stroke="#919090"/>
<path d="M167.551 109.949C178.882 100.951 194.745 77.023 167.551 53.2948" stroke="#919090"/>
<path fill-rule="evenodd" clip-rule="evenodd" d="M144.453 112.948C136.498 117.516 128.487 122.609 123.66 125.889L121.974 123.407C126.862 120.086 134.938 114.952 142.959 110.346C150.917 105.777 158.789 101.711 163.651 100.456L164.349 101.821L164.522 103.274C160.117 104.411 152.471 108.344 144.453 112.948Z" fill="#3399DB"/>
<rect x="89.1088" y="126.766" width="32.7004" height="31.3338" rx="4.5" transform="rotate(-17.3578 89.1088 126.766)" fill="#3399DB" stroke="#3399DB"/>
</svg>
