<svg width="257" height="183" viewBox="0 0 257 183" fill="none" xmlns="http://www.w3.org/2000/svg">
<path d="M151.764 117.663L151.828 122.17" stroke="#3399DB" stroke-width="3"/>
<path d="M126.341 117.243L121.173 123.748M121.173 123.748V130.826H174.745L176.551 127.448M121.173 123.748H174.745L187.132 103.96M183.432 127.448V114.578L176.551 127.448M183.432 127.448L187.132 123.748V103.96M183.432 127.448H176.551M187.132 103.96H182.844" stroke="#919090" stroke-linejoin="round"/>
<path d="M83.3516 99.6342H127.636M185.364 99.6342H244.6" stroke="#919090"/>
<path d="M132.706 66.5056H186.117M132.706 66.5056V91.521L121.551 112.48M132.706 66.5056L135.749 62.787H189.717M186.117 66.5056V91.521L174.286 112.48H121.551M186.117 66.5056L189.717 62.787M121.551 112.48V117.213H175.122L189.717 91.521V62.787" stroke="#919090" stroke-linejoin="round"/>
<path d="M126.621 14.4464C116.614 15.5282 93.6047 5.88259 83.3507 0.924569C77.4008 4.16986 77.9419 34.2785 78.9562 48.9271C80.421 55.6881 83.8916 70.7649 86.0553 76.985C88.219 83.2051 83.351 99.8595 80.6466 107.409L78.9562 174.68C111.747 170.286 170.229 179.075 178.68 181.779C187.131 184.484 239.528 178.061 244.937 179.075C250.346 180.089 257.107 121.607 244.937 101.324C232.767 81.0416 260.825 -5.83641 255.079 0.924569C249.332 7.68555 224.654 14.4464 219.584 11.0659C214.513 7.68542 201.329 6.33327 186.117 5.31913C170.905 4.30499 139.129 13.0942 126.621 14.4464Z" stroke="#919090" stroke-linejoin="round"/>
<path d="M161.47 102.113C161.47 103.425 160.546 104.707 158.848 105.69C157.162 106.664 154.8 107.283 152.165 107.283C149.529 107.283 147.167 106.664 145.482 105.69C143.783 104.707 142.859 103.425 142.859 102.113C142.859 100.801 143.783 99.5183 145.482 98.536C147.167 97.5612 149.529 96.9423 152.165 96.9423C154.8 96.9423 157.162 97.5612 158.848 98.536C160.546 99.5183 161.47 100.801 161.47 102.113Z" stroke="#919090"/>
<path d="M159.252 117.663C159.252 120.297 155.603 122.432 151.101 122.432C146.6 122.432 142.95 120.297 142.95 117.663" stroke="#919090"/>
<rect x="71.6305" y="129.037" width="38.2323" height="36.3943" rx="4.5" transform="rotate(-25.7627 71.6305 129.037)" fill="#3399DB" stroke="#3399DB"/>
<path fill-rule="evenodd" clip-rule="evenodd" d="M118.57 106.845C114.031 109.476 110.256 112.515 108.064 115.472L105.654 113.685C108.185 110.271 112.345 106.985 117.066 104.249C121.807 101.502 127.229 99.2419 132.388 97.9371C137.505 96.643 142.555 96.2392 146.452 97.4157C148.428 98.0123 150.166 99.034 151.425 100.607C152.69 102.187 153.404 104.295 153.476 106.713L151.951 106.859L150.452 106.713C150.396 104.829 149.874 103.47 149.083 102.482C148.287 101.487 147.122 100.752 145.585 100.288C142.455 99.3428 138.035 99.6033 133.123 100.845C128.254 102.077 123.09 104.226 118.57 106.845Z" fill="#3399DB"/>
<path d="M151.834 131.326C151.834 136.405 145.586 145.353 118.83 143.639" stroke="#3399DB" stroke-width="3"/>
<path d="M82.5732 151.606C77.9907 154.998 55.0875 160.84 0.135742 157.078" stroke="#3399DB" stroke-width="3"/>
</svg>
