<svg width="65" height="60" viewBox="0 0 65 60" fill="none" xmlns="http://www.w3.org/2000/svg">
<path d="M7.85178 17.7668C7.95511 17.2467 10.95 13.5684 12.2014 11.7827L13.4657 10.6822L18.3436 7.26273C18.5394 7.16119 18.973 7.09441 19.1415 7.63963C19.352 8.32115 21.2203 7.79698 21.2988 6.71844C21.3616 5.8556 19.0741 5.81308 17.9225 5.89967L13.0353 8.82974L6.90424 3.45986C6.85407 2.54689 6.67394 0.683272 6.35478 0.532511C5.95583 0.344059 3.58844 -0.177365 2.07783 1.35719C0.535663 2.87863 0.756359 4.78963 1.22183 5.39959C1.59421 5.88756 3.33577 6.02176 4.16 6.02786L9.5998 12.2624L6.60123 17.0219C6.34285 18.2838 6.16736 20.7063 7.53245 20.3C8.89755 19.8938 8.75136 18.5821 8.22322 18.2743C7.97173 18.1277 7.7552 18.2528 7.85178 17.7668Z" fill="#2577A9"/>
<path fill-rule="evenodd" clip-rule="evenodd" d="M7.11445 20.2262C7.21765 20.2508 7.34489 20.247 7.50217 20.2002C8.14922 20.0077 8.4228 19.6084 8.48395 19.2336C8.54722 18.8459 8.38633 18.4902 8.16986 18.364C8.11823 18.334 8.06754 18.3172 8.01459 18.301C8.00998 18.2996 8.0052 18.2982 8.00027 18.2967C7.95456 18.283 7.89651 18.2656 7.84922 18.2349C7.78715 18.1945 7.74564 18.1345 7.73016 18.0488C7.71601 17.9706 7.72367 17.8719 7.74857 17.7466C7.75782 17.7 7.78078 17.6451 7.80961 17.5873C7.83936 17.5277 7.87913 17.4578 7.92708 17.3795C8.02305 17.2228 8.1549 17.0274 8.31282 16.8037C8.62884 16.3562 9.05298 15.7906 9.51203 15.1867C9.72676 14.9042 9.9491 14.6133 10.1717 14.3221C10.9025 13.3661 11.6366 12.4059 12.115 11.7233L12.1223 11.7128L13.4004 10.6003L18.2885 7.17364L18.2948 7.17041C18.4081 7.11163 18.5924 7.06075 18.7787 7.10765C18.9741 7.15686 19.149 7.30789 19.242 7.60911C19.2781 7.7258 19.387 7.80504 19.5715 7.83177C19.7557 7.85846 19.9935 7.82736 20.2338 7.74109C20.7206 7.56629 21.159 7.18975 21.1939 6.71092C21.2054 6.55256 21.1143 6.41943 20.9083 6.3052C20.7011 6.19034 20.3998 6.10915 20.05 6.05596C19.3631 5.9515 18.5265 5.96027 17.9554 6.00168L13.0236 8.95851L6.80159 3.50901L6.7992 3.46549C6.77423 3.01103 6.7169 2.3204 6.62636 1.72587C6.58102 1.42816 6.52786 1.15799 6.46732 0.954557C6.43697 0.852583 6.40584 0.771118 6.3748 0.712498C6.34157 0.649741 6.3172 0.63016 6.30948 0.626515C6.22237 0.585368 6.01046 0.519441 5.71277 0.468707C5.41752 0.418392 5.04465 0.384202 4.63799 0.402761C3.82392 0.439915 2.88371 0.687693 2.15309 1.42989L2.15202 1.43098C1.39922 2.17367 1.07858 3.00905 1.00152 3.73112C0.923871 4.45879 1.09419 5.05959 1.3057 5.33675C1.37949 5.43344 1.53333 5.5249 1.75763 5.60469C1.97778 5.68301 2.24924 5.74447 2.53851 5.7916C3.1167 5.88581 3.75248 5.92064 4.16076 5.92366L4.20839 5.92401L9.73004 12.2524L6.70053 17.061C6.57396 17.6867 6.47093 18.5838 6.56228 19.2729C6.60869 19.623 6.70311 19.9013 6.85303 20.0671C6.92615 20.148 7.01213 20.2019 7.11445 20.2262ZM6.35374 19.3001C6.25706 18.5708 6.36802 17.6366 6.49814 17.0011L6.50192 16.9827L9.4695 12.2724L4.11144 6.13152C3.69479 6.12619 3.07393 6.08999 2.50437 5.99719C2.20868 5.94902 1.92341 5.88505 1.68653 5.80078C1.45381 5.71799 1.25031 5.60968 1.13791 5.46239C0.883944 5.12959 0.711179 4.46991 0.792354 3.70922C0.874103 2.94313 1.21406 2.06253 2.00302 1.28391C2.78294 0.491959 3.78148 0.233279 4.62831 0.194629C5.05219 0.175282 5.44038 0.210873 5.74843 0.263371C6.05404 0.315453 6.28765 0.385372 6.40002 0.438451C6.47209 0.472496 6.52316 0.544132 6.56107 0.615715C6.60116 0.691434 6.63686 0.787431 6.66907 0.895639C6.73363 1.11257 6.78848 1.39363 6.83434 1.69479C6.92334 2.2792 6.98039 2.95226 7.00677 3.4106L13.047 8.70092L17.8895 5.79765L17.9145 5.79577C18.4945 5.75215 19.3631 5.7407 20.082 5.85002C20.4402 5.9045 20.771 5.99031 21.011 6.12339C21.2522 6.2571 21.4235 6.45285 21.4037 6.7259C21.36 7.32562 20.825 7.75043 20.3055 7.93697C20.0426 8.03137 19.7689 8.07093 19.5411 8.03793C19.3137 8.00498 19.1101 7.89416 19.0409 7.67009C18.9655 7.4261 18.8393 7.3379 18.7268 7.30958C18.6081 7.27967 18.4809 7.31069 18.3982 7.35198L13.5309 10.7641L12.2804 11.8525C11.7991 12.5384 11.0648 13.499 10.3371 14.4509C10.115 14.7414 9.89355 15.0311 9.68006 15.312C9.22105 15.9159 8.79888 16.4789 8.48518 16.9232C8.32825 17.1454 8.19939 17.3366 8.1069 17.4876C8.06063 17.5631 8.02423 17.6274 7.99816 17.6796C7.97115 17.7337 7.9586 17.7684 7.95494 17.7869C7.93155 17.9046 7.93005 17.9725 7.9372 18.0121C7.94301 18.0443 7.95325 18.0533 7.96467 18.0607C7.98545 18.0742 8.01447 18.083 8.07341 18.101L8.07636 18.1019C8.13172 18.1187 8.20241 18.1413 8.27653 18.1845C8.58819 18.3661 8.76447 18.8202 8.69159 19.2669C8.6166 19.7265 8.28072 20.1861 7.56268 20.3998C7.37869 20.4545 7.21279 20.4639 7.06532 20.4288C6.91695 20.3935 6.7947 20.3149 6.69634 20.2061C6.50331 19.9926 6.4018 19.6626 6.35374 19.3001Z" fill="#2577A9"/>
<path fill-rule="evenodd" clip-rule="evenodd" d="M15.3733 10.9226L14.5057 10.1024L14.6509 9.95168L15.5186 10.7719L15.3733 10.9226Z" fill="#2577A9"/>
<path fill-rule="evenodd" clip-rule="evenodd" d="M11.4947 14.388L10.7677 13.6671L10.9164 13.5196L11.6434 14.2405L11.4947 14.388Z" fill="#2577A9"/>
<path d="M57.2228 17.6124C57.1353 17.0896 54.2534 13.3237 53.0568 11.5015L51.8265 10.3639L47.0545 6.80071C46.8619 6.69339 46.4305 6.61373 46.2456 7.15369C46.0144 7.82863 44.1629 7.24907 44.1172 6.16868C44.0806 5.30436 46.3684 5.32997 47.5168 5.45082L52.3129 8.52508L58.6041 3.34019C58.682 2.42913 58.9186 0.571714 59.2422 0.430525C59.6466 0.254039 62.0288 -0.196659 63.4921 1.38218C64.9874 2.94886 64.7089 4.85243 64.2251 5.44825C63.8381 5.92491 62.0932 6.00719 61.2692 5.98874L55.6426 12.0585L58.4954 16.9051C58.7154 18.1742 58.8173 20.6007 57.4652 20.154C56.113 19.7073 56.2989 18.4006 56.8362 18.1087C57.092 17.9696 57.3046 18.1011 57.2228 17.6124Z" fill="#2577A9"/>
<path fill-rule="evenodd" clip-rule="evenodd" d="M57.8852 20.0928C57.7813 20.1142 57.6543 20.1067 57.4985 20.0552C56.8576 19.8435 56.5962 19.4362 56.5465 19.0598C56.495 18.6704 56.6666 18.3197 56.8868 18.2C56.9393 18.1715 56.9905 18.1562 57.0439 18.1416C57.0486 18.1404 57.0534 18.1391 57.0584 18.1378C57.1045 18.1254 57.163 18.1097 57.2112 18.0804C57.2745 18.0419 57.3178 17.9832 57.3359 17.898C57.3524 17.8202 57.3477 17.7214 57.3266 17.5954C57.3188 17.5486 57.2975 17.4929 57.2705 17.4343C57.2425 17.3738 57.2049 17.3028 57.1594 17.2231C57.0682 17.0637 56.9423 16.8644 56.7913 16.6361C56.489 16.1794 56.0822 15.6014 55.6417 14.9841C55.4356 14.6953 55.2222 14.398 55.0085 14.1002C54.307 13.1229 53.6025 12.1413 53.145 11.4447L53.138 11.4341L51.8943 10.284L47.1123 6.71334L47.1062 6.70993C46.9947 6.6478 46.812 6.59146 46.6244 6.63279C46.4275 6.67616 46.2482 6.82191 46.146 7.12023C46.1064 7.23579 45.9951 7.31174 45.8099 7.33297C45.625 7.35417 45.3882 7.316 45.1507 7.22261C44.6694 7.0334 44.2426 6.64397 44.2223 6.16432C44.2156 6.00569 44.3107 5.87533 44.5201 5.76729C44.7306 5.65865 45.0343 5.58647 45.3855 5.54372C46.0753 5.45975 46.9112 5.49343 47.4809 5.55183L52.3207 8.65418L58.7052 3.39241L58.709 3.34899C58.7477 2.89547 58.826 2.20686 58.9345 1.61529C58.9889 1.31906 59.0502 1.0506 59.1169 0.849066C59.1503 0.748041 59.1839 0.667541 59.2167 0.609871C59.2518 0.548132 59.2768 0.529286 59.2846 0.525872C59.3729 0.487337 59.5867 0.427748 59.8858 0.385903C60.1825 0.344401 60.5562 0.321329 60.9621 0.35199C61.7747 0.413369 62.707 0.68903 63.4147 1.45265L63.4158 1.45377C64.1457 2.21854 64.4408 3.06308 64.496 3.78713C64.5515 4.51678 64.363 5.11223 64.1432 5.38297C64.0665 5.47742 63.91 5.56426 63.6833 5.63734C63.4609 5.70907 63.1877 5.76242 62.8971 5.80091C62.3163 5.87786 61.6798 5.89374 61.2716 5.8846L61.224 5.88354L55.5128 12.0446L58.395 16.9412C58.5025 17.5705 58.5783 18.4703 58.4661 19.1563C58.4091 19.5049 58.3062 19.7802 58.1514 19.9415C58.0758 20.0202 57.9882 20.0715 57.8852 20.0928ZM58.6737 19.1897C58.7925 18.4636 58.7099 17.5266 58.5991 16.8875L58.5959 16.8689L55.7726 12.0724L61.3146 6.09384C61.7312 6.10092 62.3529 6.08322 62.925 6.00743C63.222 5.96808 63.5091 5.91264 63.7484 5.83546C63.9836 5.75963 64.1903 5.65743 64.3071 5.51355C64.571 5.18846 64.7637 4.53422 64.7057 3.77146C64.6472 3.00328 64.3341 2.11296 63.5692 1.3112C62.8136 0.496384 61.8234 0.208089 60.9781 0.144242C60.555 0.112281 60.1659 0.136297 59.8564 0.179598C59.5494 0.222557 59.3137 0.285487 59.1998 0.335198C59.1267 0.367081 59.0735 0.437163 59.0335 0.507587C58.9911 0.582077 58.9525 0.676968 58.917 0.784166C58.8459 0.99908 58.7825 1.27838 58.7276 1.57804C58.6209 2.15953 58.5434 2.83059 58.5031 3.28793L52.3051 8.396L47.5529 5.34986L47.528 5.34723C46.9495 5.28637 46.0817 5.24906 45.3598 5.33692C45.0001 5.3807 44.6669 5.45663 44.4229 5.5825C44.1778 5.70897 44.0006 5.89952 44.0122 6.17305C44.0376 6.77379 44.5595 7.21434 45.0731 7.41627C45.333 7.51846 45.6054 7.56615 45.8341 7.53995C46.0624 7.51378 46.2692 7.40907 46.3452 7.18716C46.4279 6.94553 46.5568 6.86112 46.67 6.83617C46.7897 6.80981 46.9158 6.8446 46.9972 6.88834L51.7588 10.4438L52.9757 11.569C53.436 12.2689 54.1408 13.2509 54.8393 14.2241C55.0524 14.5211 55.265 14.8172 55.4699 15.1043C55.9104 15.7216 56.3153 16.297 56.6154 16.7504C56.7655 16.9772 56.8885 17.1721 56.9763 17.3258C57.0203 17.4027 57.0547 17.468 57.0792 17.521C57.1046 17.5759 57.116 17.6109 57.1191 17.6295C57.139 17.7478 57.1384 17.8158 57.13 17.8551C57.1233 17.8871 57.1128 17.8958 57.1011 17.9029C57.0799 17.9158 57.0507 17.9237 56.9912 17.9399L56.9882 17.9407C56.9324 17.9559 56.861 17.9764 56.7856 18.0173C56.4686 18.1896 56.2786 18.6383 56.3379 19.0869C56.3989 19.5485 56.7207 20.0179 57.4319 20.2529C57.6142 20.3131 57.7797 20.3274 57.9282 20.2967C58.0776 20.2659 58.2021 20.1909 58.3038 20.0851C58.5032 19.8774 58.6147 19.5506 58.6737 19.1897Z" fill="#2577A9"/>
<path fill-rule="evenodd" clip-rule="evenodd" d="M53.6566 14.1195L54.3835 13.3986L54.5322 13.5461L53.8053 14.267L53.6566 14.1195Z" fill="#2577A9"/>
<path fill-rule="evenodd" clip-rule="evenodd" d="M50.029 10.2727L50.756 9.67196L50.8906 9.8322L50.1637 10.433L50.029 10.2727Z" fill="#2577A9"/>
<path d="M50.9445 36.7559C49.8653 29.3612 50.1368 20.8341 51.7926 17.0736L47.0675 11.9131C43.231 12.6331 34.952 14.0733 32.5289 14.0733C30.1058 14.0733 21.9076 12.9532 18.1114 12.3931L13.3864 17.0736C16.173 21.9942 15.6237 29.939 14.4768 36.7559C13.3864 43.2367 16.2941 49.3574 22.9577 50.6775C27.1157 51.5012 32.2865 56.0781 32.65 56.4382C33.0134 56.0781 37.9808 51.5176 42.3424 50.6775C47.6732 49.6506 52.3983 46.7171 50.9445 36.7559Z" fill="#2577A9"/>
<path fill-rule="evenodd" clip-rule="evenodd" d="M32.5971 60L32.3742 59.7798C32.184 59.5918 30.6361 58.2126 28.5501 56.7652C26.458 55.3135 23.8694 53.8251 21.5895 53.3745C17.736 52.6129 14.9562 50.4608 13.3037 47.5594C11.6547 44.6643 11.1368 41.0401 11.7622 37.3313C12.4083 33.5004 12.884 29.3636 12.8081 25.4998C12.7322 21.631 12.1035 18.0672 10.567 15.3603L10.4496 15.1535L16.0676 9.60143L16.2246 9.62453C18.3663 9.93977 21.7503 10.4127 24.9398 10.8067C28.1387 11.2018 31.1159 11.5142 32.4604 11.5142C33.7983 11.5142 36.7925 11.1137 40.0217 10.6053C43.2391 10.0989 46.6566 9.49094 48.8208 9.0857L48.9941 9.05323L54.5865 15.1468L54.5046 15.3323C53.5942 17.3951 53.0514 20.8077 52.8937 24.7718C52.7364 28.7255 52.9634 33.1911 53.57 37.338C54.398 42.9981 53.4757 46.7281 51.5219 49.1932C49.572 51.6535 46.6441 52.7905 43.6032 53.3749C41.2088 53.835 38.6203 55.3235 36.5594 56.7711C34.5048 58.2142 33.0132 59.5888 32.8199 59.7798L32.5971 60ZM36.1944 56.2612C38.2724 54.8016 40.9516 53.2477 43.483 52.7612C46.4624 52.1887 49.2127 51.0947 51.0255 48.8073C52.8345 46.5248 53.7593 42.9907 52.9455 37.4276C52.3334 33.2431 52.1043 28.7392 52.2632 24.7472C52.4171 20.8779 52.9365 17.4545 53.8462 15.2693L48.7645 9.73229C46.5897 10.1379 43.2609 10.7283 40.1208 11.2226C36.9079 11.7284 33.8589 12.1392 32.4604 12.1392C31.0683 12.1392 28.0481 11.8206 24.8617 11.4269C21.743 11.0417 18.4401 10.5813 16.2888 10.2658L11.2328 15.2624C12.758 18.0703 13.3641 21.6699 13.439 25.4877C13.5159 29.4056 13.0338 33.5847 12.3846 37.4343C11.7787 41.0274 12.2869 44.5021 13.8533 47.2523C15.4162 49.9963 18.041 52.0358 21.7129 52.7616C24.1289 53.2391 26.8079 54.7931 28.9122 56.2532C30.6649 57.4695 32.0498 58.6426 32.595 59.13C33.1254 58.6444 34.4652 57.4758 36.1944 56.2612Z" fill="#2577A9"/>
<path d="M10.1151 56.5581C10.8905 56.2701 15.6479 53.1177 17.7479 51.6376L14.1133 48.3972C12.4575 51.2375 9.33976 56.8462 10.1151 56.5581Z" fill="#2577A9"/>
<path fill-rule="evenodd" clip-rule="evenodd" d="M10.0986 56.4527C10.2913 56.3754 10.7141 56.1356 11.2843 55.7873C11.8709 55.4289 12.603 54.9622 13.377 54.4579C14.8734 53.4829 16.5242 52.3688 17.5799 51.628L14.1394 48.5607C13.3154 49.9776 12.1615 52.0237 11.2961 53.6983C10.8515 54.5585 10.4849 55.3174 10.2778 55.8419C10.1732 56.1067 10.1135 56.3017 10.1009 56.4178C10.0995 56.4314 10.0987 56.443 10.0986 56.4527ZM11.1089 53.6033C11.9995 51.8799 13.1938 49.766 14.0222 48.3451L14.0871 48.2338L17.9158 51.6471L17.8089 51.7225C16.7575 52.4635 15.0421 53.6223 13.4926 54.632C12.7178 55.1368 11.9838 55.6047 11.3947 55.9646C10.8102 56.3217 10.3576 56.5793 10.152 56.6557C10.1189 56.668 10.08 56.6768 10.0395 56.6714C9.99508 56.6654 9.95631 56.6431 9.92945 56.6071C9.90505 56.5744 9.895 56.5366 9.89089 56.5036C9.88667 56.4698 9.88772 56.4331 9.8918 56.3955C9.90773 56.2489 9.97735 56.0308 10.0819 55.766C10.2931 55.2311 10.6639 54.4643 11.1089 53.6033Z" fill="#2577A9"/>
<path d="M9.99399 56.5582L15.6883 50.1974L17.5056 51.6376L9.99399 56.5582Z" fill="white"/>
<path fill-rule="evenodd" clip-rule="evenodd" d="M10.052 56.6451L9.91527 56.489L15.6759 50.0542L17.684 51.6456L10.052 56.6451ZM17.3271 51.6296L15.7006 50.3406L10.6042 56.0335L17.3271 51.6296Z" fill="#2577A9"/>
<path d="M55.5993 56.6542C54.8304 56.3495 50.1434 53.0953 48.0764 51.5702L51.7814 48.409C53.3744 51.2844 56.3682 56.9589 55.5993 56.6542Z" fill="#2577A9"/>
<path fill-rule="evenodd" clip-rule="evenodd" d="M55.6182 56.5491C55.4272 56.4677 55.0097 56.2189 54.4473 55.8583C53.8687 55.4873 53.1471 55.005 52.3844 54.4841C50.9098 53.4771 49.2838 52.3277 48.2446 51.5642L51.7517 48.5719C52.5444 50.0062 53.6531 52.0767 54.4815 53.7695C54.907 54.6392 55.2569 55.4058 55.4524 55.9346C55.5511 56.2016 55.6065 56.3979 55.6166 56.5142C55.6178 56.5278 55.6182 56.5394 55.6182 56.5491ZM54.6707 53.6787C53.8182 51.9365 52.6706 49.7973 51.8737 48.3589L51.8112 48.2461L47.9084 51.5761L48.0136 51.6538C49.0484 52.4173 50.738 53.6128 52.265 54.6556C53.0285 55.177 53.752 55.6607 54.333 56.0332C54.9095 56.4028 55.3564 56.6701 55.5603 56.7509C55.5931 56.7639 55.6318 56.7736 55.6724 56.769C55.717 56.764 55.7562 56.7425 55.7839 56.7071C55.809 56.6749 55.8198 56.6374 55.8247 56.6045C55.8296 56.5708 55.8294 56.5341 55.8261 56.4964C55.8134 56.3495 55.7486 56.13 55.6499 55.8629C55.4505 55.3236 55.0966 54.549 54.6707 53.6787Z" fill="#2577A9"/>
<path d="M55.7205 56.6568L50.1673 50.1748L48.3188 51.5755L55.7205 56.6568Z" fill="white"/>
<path fill-rule="evenodd" clip-rule="evenodd" d="M55.6606 56.7424L55.8007 56.5894L50.1828 50.0319L48.1402 51.5796L55.6606 56.7424ZM48.4974 51.5713L50.1518 50.3177L55.1219 56.1192L48.4974 51.5713Z" fill="#2577A9"/>
<path d="M22.2733 20.158L24.4457 22.5657L24.377 42.1278L22.1882 44.4006L30.9113 44.4306L28.9808 42.1437L29.0495 22.5816L30.9964 20.188L22.2733 20.158Z" fill="white"/>
<path d="M34.0253 20.1985L36.1976 22.6063L36.1289 42.1684L33.9401 44.4411L42.6632 44.4712L40.7328 42.1842L40.8015 22.6221L42.7484 20.2285L34.0253 20.1985Z" fill="white"/>
<path d="M29.8295 33.3001C31.9343 34.9334 34.9952 34.318 36.3701 33.8027L36.3777 31.6424C36.376 32.1225 35.0655 32.718 29.8366 31.2599C24.6078 29.8017 22.5616 32.875 22.1921 34.5939C23.9332 33.3198 27.6546 31.6124 29.8295 33.3001Z" fill="white"/>
<path d="M2.56195 1.75354C3.46104 0.817423 4.76447 0.600043 5.47323 1.26801C6.18199 1.93597 6.02771 3.23633 5.12862 4.17245C4.22953 5.10856 2.9261 5.32594 2.21734 4.65798C1.50858 3.99001 1.66286 2.68965 2.56195 1.75354Z" fill="white"/>
<path d="M62.7765 1.4619C63.8147 2.25246 64.171 3.51857 63.5725 4.28984C62.9739 5.0611 61.6471 5.04546 60.609 4.2549C59.5708 3.46433 59.2145 2.19822 59.813 1.42696C60.4116 0.655692 61.7384 0.671335 62.7765 1.4619Z" fill="white"/>
</svg>
