<svg width="111" height="103" viewBox="0 0 111 103" fill="none" xmlns="http://www.w3.org/2000/svg">
<path d="M13.4084 30.3404C13.5848 29.4523 18.6992 23.1708 20.8361 20.1214L22.9952 18.2421L31.3251 12.4027C31.6595 12.2293 32.4001 12.1153 32.6877 13.0463C33.0473 14.2102 36.2376 13.315 36.3717 11.4732C36.479 9.99976 32.5726 9.92715 30.606 10.075L22.2602 15.0787L11.7903 5.90857C11.7046 4.34951 11.397 1.16702 10.852 0.909563C10.1707 0.587748 6.12791 -0.302684 3.54824 2.31786C0.914703 4.91602 1.29158 8.17942 2.08647 9.22104C2.72238 10.0543 5.69642 10.2835 7.10395 10.2939L16.3935 20.9406L11.2728 29.0683C10.8316 31.2234 10.5319 35.3601 12.8631 34.6664C15.1942 33.9726 14.9446 31.7328 14.0427 31.207C13.6132 30.9567 13.2435 31.1703 13.4084 30.3404Z" fill="white"/>
<path fill-rule="evenodd" clip-rule="evenodd" d="M12.1493 34.5403C12.3255 34.5822 12.5428 34.5758 12.8114 34.4959C13.9164 34.1671 14.3836 33.4851 14.488 32.8452C14.596 32.1831 14.3213 31.5757 13.9516 31.3603C13.8635 31.3089 13.7769 31.2802 13.6865 31.2527C13.6786 31.2503 13.6704 31.2478 13.662 31.2453C13.584 31.2219 13.4848 31.1922 13.4041 31.1397C13.2981 31.0707 13.2272 30.9682 13.2008 30.822C13.1766 30.6883 13.1897 30.5198 13.2322 30.3059C13.248 30.2263 13.2872 30.1324 13.3364 30.0338C13.3872 29.932 13.4551 29.8127 13.537 29.679C13.7009 29.4114 13.9261 29.0777 14.1958 28.6957C14.7354 27.9315 15.4597 26.9656 16.2436 25.9343C16.6103 25.4519 16.99 24.9552 17.3702 24.4578C18.6182 22.8253 19.8717 21.1856 20.6886 20.0198L20.7011 20.002L22.8837 18.1022L31.2312 12.2505L31.2418 12.245C31.4354 12.1446 31.7501 12.0577 32.0682 12.1378C32.402 12.2218 32.7005 12.4797 32.8595 12.9942C32.921 13.1934 33.1071 13.3287 33.4222 13.3744C33.7367 13.42 34.1428 13.3669 34.5531 13.2195C35.3845 12.921 36.1331 12.278 36.1926 11.4603C36.2123 11.1899 36.0568 10.9625 35.7049 10.7675C35.3511 10.5713 34.8366 10.4327 34.2393 10.3418C33.0662 10.1635 31.6376 10.1784 30.6622 10.2492L22.2403 15.2985L11.615 5.99244L11.611 5.91813C11.5683 5.14204 11.4704 3.96266 11.3158 2.94739C11.2384 2.43898 11.1476 1.97761 11.0442 1.63022C10.9924 1.45608 10.9392 1.31697 10.8862 1.21686C10.8295 1.10969 10.7879 1.07625 10.7747 1.07003C10.6259 0.999762 10.264 0.887178 9.75567 0.800538C9.25147 0.714615 8.61472 0.65623 7.92027 0.687923C6.53009 0.751375 4.92451 1.1745 3.67684 2.44194L3.67501 2.44381C2.38946 3.71208 1.8419 5.13865 1.71031 6.37174C1.57771 7.61437 1.86857 8.64035 2.22975 9.11365C2.35576 9.27877 2.61848 9.43495 3.00151 9.57122C3.37747 9.70497 3.84103 9.80992 4.33502 9.8904C5.32239 10.0513 6.40809 10.1108 7.10531 10.1159L7.18665 10.1165L16.6159 20.9234L11.4425 29.135C11.2263 30.2036 11.0504 31.7356 11.2064 32.9124C11.2856 33.5102 11.4469 33.9854 11.7029 34.2686C11.8277 34.4067 11.9746 34.4987 12.1493 34.5403ZM10.8502 32.9587C10.6852 31.7134 10.8746 30.1181 11.0968 29.0328L11.1033 29.0013L16.171 20.9576L7.02109 10.4709C6.30958 10.4618 5.24934 10.4 4.27672 10.2415C3.77177 10.1592 3.28462 10.05 2.88011 9.90608C2.48267 9.76469 2.13517 9.57974 1.94322 9.32821C1.50953 8.75988 1.2145 7.63335 1.35312 6.33433C1.49272 5.02609 2.07325 3.5223 3.42056 2.19265C4.75243 0.840245 6.45763 0.398501 7.90375 0.332498C8.62761 0.299462 9.29052 0.360239 9.81657 0.44989C10.3384 0.53883 10.7374 0.658229 10.9293 0.748873C11.0524 0.807008 11.1396 0.929341 11.2043 1.05159C11.2728 1.18089 11.3337 1.34482 11.3887 1.52961C11.499 1.90006 11.5927 2.38003 11.671 2.89431C11.823 3.8923 11.9204 5.04168 11.9654 5.82438L22.2803 14.8586L30.5497 9.90073L30.5924 9.89752C31.583 9.82304 33.0662 9.80348 34.2938 9.99017C34.9055 10.0832 35.4704 10.2297 35.8803 10.457C36.2922 10.6853 36.5848 11.0196 36.5509 11.4859C36.4763 12.51 35.5627 13.2355 34.6755 13.554C34.2265 13.7152 33.7592 13.7828 33.3702 13.7264C32.9818 13.6702 32.6342 13.4809 32.516 13.0983C32.3873 12.6816 32.1717 12.531 31.9797 12.4826C31.7769 12.4316 31.5598 12.4845 31.4185 12.555L23.1066 18.3818L20.9712 20.2406C20.1493 21.4119 18.8954 23.0522 17.6526 24.6778C17.2734 25.1739 16.8952 25.6687 16.5306 26.1483C15.7467 27.1795 15.0258 28.1411 14.4901 28.8997C14.2221 29.2792 14.0021 29.6057 13.8441 29.8635C13.7651 29.9925 13.7029 30.1022 13.6584 30.1915C13.6123 30.2839 13.5909 30.3431 13.5846 30.3746C13.5447 30.5756 13.5421 30.6917 13.5543 30.7592C13.5642 30.8141 13.5817 30.8296 13.6012 30.8422C13.6367 30.8653 13.6863 30.8804 13.7869 30.911L13.792 30.9126C13.8865 30.9413 14.0072 30.9798 14.1338 31.0536C14.666 31.3638 14.967 32.1393 14.8426 32.902C14.7145 33.6868 14.1409 34.4717 12.9148 34.8366C12.6005 34.9301 12.3172 34.9462 12.0654 34.8863C11.812 34.826 11.6033 34.6918 11.4353 34.506C11.1057 34.1413 10.9323 33.5777 10.8502 32.9587Z" fill="white"/>
<path fill-rule="evenodd" clip-rule="evenodd" d="M26.2529 18.6528L24.7712 17.2521L25.0192 16.9947L26.5009 18.3954L26.2529 18.6528Z" fill="white"/>
<path fill-rule="evenodd" clip-rule="evenodd" d="M19.6294 24.5704L18.388 23.3393L18.642 23.0874L19.8834 24.3185L19.6294 24.5704Z" fill="white"/>
<path d="M97.719 30.0766C97.5695 29.1837 92.6481 22.7527 90.6047 19.6411L88.5037 17.6983L80.3547 11.6135C80.0257 11.4302 79.2889 11.2942 78.9732 12.2163C78.5784 13.3689 75.4167 12.3792 75.3386 10.5342C75.2761 9.05821 79.1829 9.10195 81.1441 9.30831L89.3342 14.5582L100.078 5.70401C100.211 4.1482 100.615 0.976308 101.167 0.735203C101.858 0.433818 105.926 -0.335834 108.425 2.36034C110.979 5.03574 110.503 8.28645 109.677 9.30393C109.016 10.1179 106.036 10.2584 104.629 10.2269L95.0205 20.5922L99.8922 28.8687C100.268 31.0359 100.442 35.1797 98.1328 34.4169C95.8237 33.654 96.1412 31.4226 97.0587 30.924C97.4955 30.6866 97.8586 30.9111 97.719 30.0766Z" fill="white"/>
<path fill-rule="evenodd" clip-rule="evenodd" d="M98.8501 34.3124C98.6727 34.3491 98.4557 34.3362 98.1896 34.2483C97.0952 33.8867 96.6489 33.1912 96.5639 32.5484C96.476 31.8834 96.7691 31.2845 97.1451 31.0801C97.2348 31.0314 97.3222 31.0053 97.4134 30.9805C97.4213 30.9783 97.4296 30.9761 97.4381 30.9738C97.5168 30.9528 97.6168 30.926 97.6991 30.8759C97.8071 30.8102 97.8811 30.7099 97.912 30.5644C97.9402 30.4315 97.9322 30.2628 97.8962 30.0476C97.8828 29.9677 97.8465 29.8727 97.8003 29.7726C97.7526 29.6693 97.6883 29.548 97.6105 29.4119C97.4548 29.1396 97.2399 28.7993 96.9819 28.4095C96.4657 27.6296 95.771 26.6425 95.0188 25.5883C94.6669 25.0952 94.3024 24.5875 93.9375 24.079C92.7396 22.4101 91.5365 20.7338 90.7553 19.5442L90.7433 19.526L88.6194 17.5621L80.4532 11.4645L80.4428 11.4586C80.2524 11.3526 79.9404 11.2563 79.62 11.3269C79.2839 11.401 78.9776 11.6499 78.8031 12.1593C78.7356 12.3567 78.5455 12.4864 78.2291 12.5226C77.9133 12.5588 77.5091 12.4936 77.1034 12.3341C76.2815 12.011 75.5527 11.346 75.5181 10.5269C75.5066 10.256 75.6689 10.0334 76.0265 9.84891C76.3861 9.66338 76.9046 9.54012 77.5044 9.46712C78.6824 9.32373 80.1099 9.38124 81.0827 9.48097L89.3476 14.7788L100.25 5.79334L100.257 5.71919C100.323 4.94472 100.457 3.76879 100.642 2.75858C100.735 2.25271 100.839 1.79425 100.953 1.45009C101.01 1.27758 101.068 1.14011 101.124 1.04163C101.184 0.936192 101.226 0.904008 101.24 0.898181C101.391 0.832376 101.756 0.730617 102.267 0.659157C102.773 0.588288 103.411 0.548885 104.104 0.601243C105.492 0.70606 107.084 1.17681 108.293 2.48083L108.295 2.48274C109.541 3.78873 110.045 5.23096 110.139 6.4674C110.234 7.71342 109.912 8.73027 109.537 9.19261C109.406 9.3539 109.138 9.50219 108.751 9.62699C108.372 9.74948 107.905 9.84059 107.409 9.90632C106.417 10.0377 105.33 10.0648 104.633 10.0492L104.552 10.0474L94.7987 20.5686L99.7207 28.9306C99.9043 30.0051 100.034 31.5417 99.842 32.7133C99.7447 33.3084 99.5691 33.7786 99.3046 34.0541C99.1756 34.1885 99.026 34.276 98.8501 34.3124ZM100.197 32.7702C100.399 31.5303 100.258 29.9301 100.069 28.8387L100.064 28.807L95.2424 20.616L104.706 10.4066C105.418 10.4186 106.48 10.3884 107.456 10.259C107.964 10.1918 108.454 10.0971 108.863 9.96531C109.264 9.83582 109.617 9.6613 109.817 9.4156C110.267 8.86045 110.596 7.74321 110.497 6.44065C110.398 5.12884 109.863 3.60844 108.557 2.23927C107.266 0.847826 105.575 0.355504 104.132 0.246472C103.409 0.191896 102.745 0.232906 102.216 0.306851C101.692 0.380212 101.29 0.487679 101.095 0.572567C100.97 0.627016 100.879 0.746694 100.811 0.866955C100.739 0.994162 100.673 1.1562 100.612 1.33927C100.491 1.70627 100.382 2.18323 100.289 2.69495C100.106 3.68796 99.9741 4.83392 99.9053 5.61493L89.321 14.3379L81.2057 9.13606L81.1631 9.13158C80.1753 9.02763 78.6934 8.96393 77.4606 9.11397C76.8463 9.18874 76.2773 9.31839 75.8606 9.53334C75.442 9.74931 75.1394 10.0747 75.1592 10.5418C75.2026 11.5677 76.0938 12.32 76.9709 12.6649C77.4148 12.8394 77.8799 12.9208 78.2704 12.8761C78.6603 12.8314 79.0135 12.6526 79.1433 12.2736C79.2846 11.861 79.5046 11.7168 79.698 11.6742C79.9023 11.6292 80.1177 11.6886 80.2567 11.7633L88.3881 17.8349L90.4662 19.7565C91.2521 20.9517 92.4557 22.6286 93.6485 24.2905C94.0126 24.7977 94.3756 25.3034 94.7255 25.7937C95.4777 26.8478 96.1691 27.8304 96.6815 28.6046C96.9379 28.9919 97.1479 29.3248 97.298 29.5873C97.373 29.7186 97.4319 29.8301 97.4736 29.9206C97.5169 30.0143 97.5366 30.0742 97.5419 30.1058C97.5757 30.308 97.5747 30.4241 97.5605 30.4912C97.5489 30.5458 97.5309 30.5607 97.5111 30.5728C97.4749 30.5948 97.4249 30.6084 97.3234 30.636L97.3183 30.6374C97.2229 30.6633 97.1011 30.6982 96.9723 30.7682C96.4309 31.0624 96.1065 31.8286 96.2078 32.5946C96.312 33.3829 96.8614 34.1846 98.076 34.5858C98.3872 34.6886 98.6699 34.7131 98.9235 34.6607C99.1785 34.608 99.3913 34.4801 99.5648 34.2993C99.9054 33.9447 100.096 33.3865 100.197 32.7702Z" fill="white"/>
<path fill-rule="evenodd" clip-rule="evenodd" d="M91.6289 24.1119L92.8703 22.8808L93.1243 23.1327L91.8829 24.3638L91.6289 24.1119Z" fill="white"/>
<path fill-rule="evenodd" clip-rule="evenodd" d="M85.4341 17.5425L86.6754 16.5166L86.9054 16.7903L85.664 17.8162L85.4341 17.5425Z" fill="white"/>
<path d="M86.9975 62.7679C85.1546 50.14 85.6182 35.5783 88.4458 29.1567L80.3768 20.344C73.8251 21.5737 59.6873 24.033 55.5494 24.033C51.4114 24.033 37.4115 22.1202 30.9288 21.1638L22.8598 29.1567C27.6184 37.5595 26.6805 51.1267 24.7219 62.7679C22.8599 73.8351 27.8253 84.2873 39.2046 86.5417C46.3053 87.9484 55.1354 95.7643 55.7561 96.3792C56.3768 95.7643 64.8595 87.9764 72.3077 86.5417C81.4111 84.7881 89.4801 79.7785 86.9975 62.7679Z" fill="white"/>
<path fill-rule="evenodd" clip-rule="evenodd" d="M55.6658 102.461L55.2853 102.085C54.9605 101.764 52.317 99.4091 48.7549 96.9374C45.1822 94.4583 40.7616 91.9167 36.8682 91.1472C30.2876 89.8466 25.5407 86.1714 22.7187 81.2168C19.9027 76.2727 19.0182 70.0838 20.0863 63.7503C21.1896 57.2083 22.0019 50.1439 21.8724 43.5458C21.7427 36.9391 20.6691 30.8531 18.0452 26.2306L17.8447 25.8774L27.4387 16.3962L27.7066 16.4357C31.3641 16.974 37.1428 17.7816 42.5896 18.4544C48.0522 19.1292 53.1364 19.6626 55.4323 19.6626C57.7172 19.6626 62.8302 18.9787 68.3448 18.1106C73.8391 17.2457 79.6751 16.2075 83.3709 15.5155L83.6669 15.4601L93.217 25.8659L93.0772 26.1828C91.5224 29.7055 90.5954 35.533 90.3261 42.3025C90.0575 49.0542 90.4452 56.68 91.4811 63.7617C92.8951 73.4273 91.32 79.797 87.9835 84.0068C84.6538 88.2081 79.6537 90.1498 74.4608 91.1477C70.372 91.9335 65.9515 94.4754 62.4322 96.9474C58.9236 99.4118 56.3763 101.759 56.0463 102.085L55.6658 102.461ZM61.8089 96.0767C65.3576 93.5841 69.9328 90.9306 74.2556 90.0999C79.3435 89.1221 84.0401 87.2538 87.136 83.3477C90.2251 79.45 91.8044 73.4148 90.4147 63.9148C89.3694 56.7689 88.9782 49.0777 89.2494 42.2605C89.5122 35.653 90.3992 29.8069 91.9527 26.0751L83.2749 16.6197C79.5608 17.3123 73.8764 18.3206 68.514 19.1647C63.0273 20.0285 57.8206 20.73 55.4323 20.73C53.0552 20.73 47.8975 20.1858 42.4562 19.5136C37.1304 18.8557 31.4901 18.0695 27.8162 17.5308L19.1822 26.0635C21.7868 30.8585 22.8217 37.0054 22.9497 43.525C23.0811 50.2157 22.2578 57.3523 21.1492 63.9262C20.1144 70.062 20.9823 75.9959 23.6572 80.6923C26.3261 85.3782 30.8085 88.8611 37.079 90.1004C41.2048 90.9158 45.7797 93.5697 49.3731 96.0631C52.3663 98.14 54.7312 100.143 55.6623 100.976C56.5681 100.147 58.8559 98.1508 61.8089 96.0767Z" fill="white"/>
<path d="M17.2736 96.5841C18.5977 96.0922 26.7218 90.7089 30.308 88.1813L24.1011 82.6477C21.2735 87.4981 15.9494 97.0759 17.2736 96.5841Z" fill="white"/>
<path fill-rule="evenodd" clip-rule="evenodd" d="M17.2452 96.4038C17.5743 96.2718 18.2965 95.8624 19.2701 95.2675C20.2719 94.6554 21.522 93.8585 22.8437 92.9973C25.3991 91.3323 28.2182 89.4299 30.021 88.1647L24.1458 82.9268C22.7386 85.3463 20.768 88.8405 19.2902 91.7001C18.5311 93.1691 17.9049 94.4651 17.5513 95.3607C17.3727 95.813 17.2708 96.146 17.2493 96.3443C17.2467 96.3674 17.2455 96.3872 17.2452 96.4038ZM18.9705 91.538C20.4914 88.595 22.531 84.985 23.9455 82.5586L24.0564 82.3684L30.5946 88.1974L30.412 88.326C28.6167 89.5914 25.6873 91.5704 23.0411 93.2945C21.718 94.1566 20.4647 94.9557 19.4587 95.5703C18.4606 96.1802 17.6877 96.62 17.3365 96.7505C17.28 96.7715 17.2135 96.7865 17.1444 96.7772C17.0685 96.7671 17.0023 96.7289 16.9564 96.6674C16.9148 96.6116 16.8976 96.547 16.8906 96.4907C16.8834 96.433 16.8852 96.3703 16.8921 96.3062C16.9193 96.0558 17.0382 95.6834 17.2168 95.2311C17.5774 94.3177 18.2107 93.0083 18.9705 91.538Z" fill="white"/>
<path d="M17.0666 96.584L26.7907 85.7218L29.8942 88.1812L17.0666 96.584Z" fill="#2577A9"/>
<path fill-rule="evenodd" clip-rule="evenodd" d="M17.1656 96.7322L16.9322 96.4658L26.7696 85.4771L30.1989 88.1947L17.1656 96.7322ZM29.5894 88.1673L26.8118 85.9662L18.1087 95.6879L29.5894 88.1673Z" fill="white"/>
<path d="M94.9464 96.7479C93.6334 96.2276 85.6295 90.6705 82.0997 88.0661L88.4267 82.6677C91.147 87.5779 96.2594 97.2682 94.9464 96.7479Z" fill="white"/>
<path fill-rule="evenodd" clip-rule="evenodd" d="M94.9786 96.5685C94.6525 96.4294 93.9395 96.0045 92.9792 95.3887C91.9911 94.7552 90.7588 93.9315 89.4563 93.042C86.9381 91.3223 84.1615 89.3595 82.3869 88.0558L88.3759 82.9458C89.7295 85.3951 91.6229 88.931 93.0375 91.8218C93.7642 93.3068 94.3617 94.6159 94.6956 95.519C94.8641 95.975 94.9587 96.3102 94.9759 96.5088C94.9779 96.532 94.9787 96.5518 94.9786 96.5685ZM93.3607 91.6666C91.9048 88.6914 89.945 85.0384 88.5842 82.582L88.4775 82.3895L81.8127 88.0761L81.9925 88.2087C83.7595 89.5125 86.6448 91.5542 89.2524 93.3349C90.5563 94.2253 91.7918 95.0512 92.784 95.6874C93.7685 96.3186 94.5315 96.7751 94.8797 96.913C94.9358 96.9353 95.002 96.9517 95.0712 96.944C95.1473 96.9354 95.2144 96.8987 95.2616 96.8382C95.3044 96.7833 95.323 96.7191 95.3313 96.663C95.3397 96.6054 95.3393 96.5427 95.3338 96.4784C95.3121 96.2276 95.2014 95.8526 95.0328 95.3967C94.6924 94.4757 94.088 93.1529 93.3607 91.6666Z" fill="white"/>
<path d="M95.1533 96.7522L85.6702 85.6829L82.5135 88.0748L95.1533 96.7522Z" fill="#2577A9"/>
<path fill-rule="evenodd" clip-rule="evenodd" d="M95.0511 96.8987L95.2903 96.6374L85.6968 85.4392L82.2086 88.0822L95.0511 96.8987ZM82.8185 88.068L85.6438 85.9273L94.1313 95.8343L82.8185 88.068Z" fill="white"/>
<path d="M38.036 34.4236L41.7457 38.5353L41.6284 71.9414L37.8906 75.8225L52.787 75.8738L49.4904 71.9684L49.6077 38.5624L52.9324 34.4749L38.036 34.4236Z" fill="#2577A9"/>
<path d="M58.1046 34.4927L61.8143 38.6044L61.697 72.0104L57.9592 75.8916L72.8556 75.9429L69.559 72.0375L69.6763 38.6315L73.001 34.544L58.1046 34.4927Z" fill="#2577A9"/>
<path d="M50.9395 56.8663C54.5339 59.6555 59.761 58.6046 62.1089 57.7246L62.1219 54.0356C62.119 54.8553 59.8809 55.8724 50.9517 53.3822C42.0225 50.8921 38.5282 56.1404 37.8972 59.0758C40.8704 56.8999 47.2255 53.9842 50.9395 56.8663Z" fill="#2577A9"/>
<path d="M4.37499 2.99451C5.91035 1.39592 8.1362 1.0247 9.34655 2.16537C10.5569 3.30605 10.2934 5.52667 8.75805 7.12526C7.22269 8.72386 4.99684 9.09508 3.78649 7.9544C2.57614 6.81373 2.83962 4.59311 4.37499 2.99451Z" fill="#2577A9"/>
<path d="M107.203 2.49641C108.976 3.84645 109.584 6.00857 108.562 7.32566C107.54 8.64274 105.274 8.61603 103.501 7.26599C101.729 5.91595 101.12 3.75383 102.142 2.43674C103.164 1.11966 105.43 1.14638 107.203 2.49641Z" fill="#2577A9"/>
</svg>
