<svg width="289" height="183" viewBox="0 0 289 183" fill="none" xmlns="http://www.w3.org/2000/svg">
<path d="M281.5 7.29266H288.25V104.293H281.5M281.5 7.29266H275.25L274.75 104.293H281.5M281.5 7.29266V104.293" stroke="#919090" stroke-linecap="round" stroke-linejoin="round"/>
<path d="M105.25 182.293H116.75L158.75 118.293L155.75 109.793L109.25 182.293V65.2927H105.25M105.25 182.293H101.75H96.75V65.2927H103.75H105.25M105.25 182.293V65.2927" stroke="#919090" stroke-linecap="round" stroke-linejoin="round"/>
<path d="M1.75 2.79266C14.75 15.626 53.25 43.7927 95.25 51.7927" stroke="#3399DB" stroke-width="3" stroke-linecap="round" stroke-linejoin="round"/>
<path d="M129.75 55.7927C134.583 59.626 147.65 68.6927 159.25 72.2927" stroke="#3399DB" stroke-width="4" stroke-linecap="round" stroke-linejoin="round"/>
<circle cx="214.75" cy="96.2927" r="60" fill="white" stroke="#919090"/>
<path fill-rule="evenodd" clip-rule="evenodd" d="M172.799 75.3696C174.362 75.816 177.082 76.22 179.937 76.489C182.776 76.7564 185.543 76.8717 187.155 76.7949L186.25 76.8175L188.75 80.4713L187.345 80.7904C185.457 80.8803 182.474 80.7456 179.562 80.4713C176.667 80.1986 173.638 79.7693 171.7 79.2157L169.75 78.5L172.799 75.3696Z" fill="#3399DB"/>
<path d="M176.25 74.2927C167.25 76.2927 167.583 89.7927 167.25 97.2927C167.25 105.293 167.25 118.793 176.25 120.793C185.25 122.793 190.25 114.293 188.75 108.293C187.25 102.293 187.25 102.793 187.25 96.7927C187.25 90.3372 192.337 84.277 186.75 77.2927C184.75 74.7927 180.275 73.3982 176.25 74.2927Z" stroke="#919090"/>
<path fill-rule="evenodd" clip-rule="evenodd" d="M209.579 54.1799C210.584 54.6377 211.028 55.8238 210.57 56.829C209.824 58.467 208.477 61.0734 206.822 63.6567C205.194 66.1982 203.148 68.911 200.969 70.5858C200.093 71.2589 198.837 71.0945 198.164 70.2186C197.491 69.3428 195.874 69.673 196.75 69C198.36 67.7628 201.884 63.9498 203.454 61.4993C204.997 59.0906 206.255 56.653 206.93 55.171C207.388 54.1658 208.574 53.7221 209.579 54.1799Z" fill="#3399DB"/>
<path d="M253.37 74.0644C262.37 76.0644 262.037 89.5644 262.37 97.0644C262.37 105.064 262.37 118.564 253.37 120.564C244.37 122.564 239.37 114.064 240.87 108.064C242.37 102.064 242.37 102.564 242.37 96.5644C242.37 90.1089 237.283 84.0487 242.87 77.0644C244.87 74.5644 249.345 73.1699 253.37 74.0644Z" stroke="#919090"/>
<path d="M238.049 135.913C236.049 144.913 222.549 144.579 215.049 144.913C207.049 144.913 193.549 144.913 191.549 135.913C189.549 126.912 198.049 121.913 204.049 123.413C210.049 124.913 209.549 124.913 215.549 124.913C222.004 124.913 228.064 119.825 235.049 125.413C237.549 127.413 238.943 131.888 238.049 135.913Z" stroke="#919090"/>
<path d="M191.522 57.7927C193.522 48.7927 207.022 49.126 214.522 48.7927C222.522 48.7924 236.022 48.7924 238.022 57.7927C240.022 66.7929 231.522 71.7926 225.522 70.2927C219.522 68.7927 220.022 68.7927 214.022 68.7927C207.566 68.7927 201.506 73.8801 194.522 68.2927C192.022 66.2927 190.627 61.8176 191.522 57.7927Z" stroke="#919090"/>
<path d="M202.25 57.2927V50L209.75 49L219.75 48.7927L220.25 57.2927H202.25Z" fill="white" stroke="#919090" stroke-linecap="round" stroke-linejoin="round"/>
<path d="M212.75 51H207.75V54" stroke="#919090" stroke-linecap="round" stroke-linejoin="round"/>
<path d="M208.25 43.2927C208.75 44.626 210.75 50.2927 209.75 52.7927" stroke="#3399DB" stroke-width="4" stroke-linecap="round" stroke-linejoin="round"/>
<path d="M207.75 54.2927H213.25V51H212.75" stroke="#919090" stroke-linecap="round" stroke-linejoin="round"/>
<path d="M199.25 42.7927V32.7927H216.25V42.7927H199.25Z" fill="white" stroke="#919090" stroke-linecap="round" stroke-linejoin="round"/>
<path d="M209.25 102.793L221.25 90.7927" stroke="#919090"/>
<path d="M130.75 39.2927C136.75 38.626 151.05 35.8927 160.25 30.2927C171.75 23.2927 201.75 23.7927 206.25 38.2927" stroke="#3399DB" stroke-width="4" stroke-linecap="round" stroke-linejoin="round"/>
<path d="M101.75 29.7927C105.75 19.7927 141.75 29.7927 150.25 27.2927C158.75 24.7927 161.05 16.5927 168.25 15.7927C175.45 14.9927 191.18 20.9717 204.25 15.7927C210.196 13.4365 211.85 8.09267 218.25 7.29267C224.65 6.49267 230.467 13.1066 238.75 12.7927C248.461 12.4246 255.35 6.89266 261.75 3.29266C268.15 -0.307339 272.75 4.45933 274.25 7.29267" stroke="#3399DB" stroke-width="3" stroke-linecap="round" stroke-linejoin="round"/>
<path d="M204.25 38.7927V39.7927H208.75V38.2927H208.25" stroke="#919090" stroke-linecap="round" stroke-linejoin="round"/>
<circle cx="215.25" cy="96.7927" r="20.5" stroke="#919090"/>
<circle cx="215.25" cy="96.7927" r="8.5" stroke="#919090"/>
<path d="M96.6389 33.8298C96.8774 31.356 99.0762 29.544 101.55 29.7825L126.74 32.2112C129.213 32.4497 131.025 34.6485 130.787 37.1223L128.409 61.7849C128.171 64.2587 125.972 66.0707 123.498 65.8322L98.3084 63.4035C95.8346 63.165 94.0225 60.9663 94.2611 58.4924L96.6389 33.8298Z" fill="#3399DB" stroke="#3399DB"/>
</svg>
