<svg width="114" height="102" viewBox="0 0 114 102" fill="none" xmlns="http://www.w3.org/2000/svg">
<path d="M30.3777 2L53.2641 30.5L56.8777 35L71.8777 48C75.5444 50.6667 85.3777 54.7 95.3777 49.5C107.878 43 117.378 11 108.878 4.5C100.378 -2 87.8777 6.5 81.3777 12.5C76.1777 17.3 78.2111 16.1667 79.8777 15" stroke="#3398DC" stroke-width="3" stroke-linecap="round" stroke-linejoin="round"/>
<path d="M55.3777 32.5001C55.161 32.1751 55.1838 31.3008 56.7642 30.9483C58.0276 29.8051 60.4033 28.6681 66.3777 29.0001C72.8176 29.358 65.3777 39.5001 63.8777 41.0001C61.8777 43.5001 52.7777 48.1001 50.3777 44.5001C47.9777 40.9001 49.3777 37.3334 50.3777 36.0001L53.3008 33.1671C53.3266 33.1102 53.8523 33.5546 53.8777 33.5001L55.3777 32.5001Z" fill="white"/>
<path d="M53.8777 33.5001L55.3777 32.5001M53.8777 33.5001C53.8523 33.5546 53.3266 33.1102 53.3008 33.1671M53.8777 33.5001L53.3777 37L59.3777 32.5001H61.8777V35L52.3777 39.5L60.3777 33.5001M55.3777 32.5001C55.0444 32.0001 55.2777 30.2001 60.8777 31.0001C66.4777 31.8001 62.8777 36.3334 60.3777 38.5001C59.211 39.5001 56.1777 41.4001 53.3777 41.0001C50.6387 40.6088 52.142 35.7201 53.3008 33.1671M55.3777 32.5001C56.5444 31.3334 57.3777 28.5 66.3777 29.0001C72.8176 29.358 65.3777 39.5001 63.8777 41.0001C61.8777 43.5001 52.7777 48.1001 50.3777 44.5001C47.9777 40.9001 49.3777 37.3334 50.3777 36.0001L53.3008 33.1671" stroke="#3398DC" stroke-width="3" stroke-linejoin="round"/>
<path d="M30.3777 2L52.3777 33.5M36.8777 13.5L39.3777 11.5" stroke="#3398DC" stroke-width="3" stroke-linecap="round" stroke-linejoin="round"/>
<path d="M49.3777 25.5L56.8777 34.5L59.3777 37.5" stroke="#3398DC" stroke-width="3"/>
<path d="M68.3778 36L66.8778 46.5L20.3778 100.5C12.8685 100 4.36849 94.5 1.87777 88L50.8777 32.5L56.3777 30.5L62.3777 28L74.3777 15.5H79.3777V19.5L70.3777 30.5" stroke="#3398DC" stroke-width="3" stroke-linejoin="round"/>
</svg>
