<svg width="97" height="107" viewBox="0 0 97 107" fill="none" xmlns="http://www.w3.org/2000/svg">
<path d="M38.3632 79.3859L25.3632 92.8859C22.9632 96.0859 21.0299 95.5525 20.3632 94.8859L11.8632 87.3859V82.8859L8.36322 77.3859L20.3632 65.3859L22.3632 62.8859M38.3632 79.3859C33.3632 75.5525 23.1632 66.8859 22.3632 62.8859M38.3632 79.3859C39.9632 79.3859 40.3632 78.0525 40.3632 77.3859C36.8632 71.8859 24.8632 62.3859 23.8632 61.8859C23.0632 61.4859 22.5299 62.3859 22.3632 62.8859" stroke="#3299DB" stroke-width="3" stroke-linejoin="round"/>
<path d="M26.3632 66.3858C28.8632 59.5524 33.5001 51.6838 33.8632 41.8858C34.6368 21.0167 47.7138 1.01848 70.6368 2.03734C93.1368 3.0374 95.3632 16.5167 95.3632 25.8858C95.3632 31.9066 91.1368 49.0167 75.8632 56.8858C59.7024 65.212 49.3632 65.3858 40.8632 71.8858C34.0632 77.0858 33.8632 73.5166 40.8632 69.5374L34.6368 74.0166M34.6368 74.0166C34.6368 74.0166 37.9658 69.4644 41.6368 67.996C56.6368 61.996 72.6368 56.0167 72.6368 56.0167C78.1368 53.5167 87.9368 46.0373 91.1368 36.0373C94.3368 26.0373 93.7985 16.7446 88.1368 10.5167C83.1368 5.01672 74.6368 4.01672 68.6368 4.01672C63.6368 4.01672 56.6368 5.53731 48.6368 12.5167C40.9061 19.2611 38.0383 23.8643 37.1368 36.0167C36.1368 49.4961 30.4701 60.5373 27.1368 67.5373M34.6368 74.0166L30.6368 69.0373H29.1368L25.1368 64.5374M34.6368 74.0166L31.1368 69.5374M38.6368 76.0374L37.6368 77.0374M13.3633 90.3858L4.36317 99.3858C1.36317 102.386 -0.736765 109.086 6.86323 101.886C14.4632 94.6858 16.1966 92.5524 16.3633 92.3858L13.3633 90.3858Z" stroke="#3399DB" stroke-width="3"/>
</svg>
