<svg width="110" height="103" viewBox="0 0 110 103" fill="none" xmlns="http://www.w3.org/2000/svg">
<path d="M88.4422 36.5L92.9422 37L108.442 11L106.942 6.5L102.942 9.5V15H96.9422V21H91.9422V28.5H88.4422L85.9422 22.5H89.4422L91.9422 17.5L95.9422 16.5L96.9422 11L101.942 9.5L105.942 6.5L102.942 2L77.4422 18L78.4422 21" stroke="#3398DC" stroke-width="3" stroke-linejoin="round"/>
<path d="M69.9422 24.5L76.9422 21.5C80.9422 20 84.4422 22.75 85.4422 24C88.2422 27.5 88.5492 43 80.5492 45C78.5494 45.5 75.0492 41.5 73.5492 40C72.0492 38.5 78.558 30.8255 71.0493 32C68.0493 32.4693 66.0493 25.5 69.9422 24.5Z" stroke="#3398DC" stroke-width="3" stroke-linejoin="round"/>
<path d="M29.4422 44.5L62.4422 29.5001L65.9422 28.5C66.4422 28.5 68.0493 28.5 68.5493 31.5C69.0795 34.681 44.4422 45.9999 32.9422 52" stroke="#3398DC" stroke-width="3" stroke-linejoin="round"/>
<path d="M46.6329 72.6674L71.1438 45.9613L73.9744 43.6727C74.4346 43.4772 76.7357 42.5 77.7129 44.8011C78.9735 47.7695 61.0257 68.1845 52.7861 78.2025" stroke="#3398DC" stroke-width="3" stroke-linejoin="round"/>
<path d="M3.04929 57.5L28.9422 45" stroke="#3398DC" stroke-width="3" stroke-linecap="round" stroke-linejoin="round"/>
<path d="M26.7455 94.4031L46.5113 73.0592" stroke="#3398DC" stroke-width="3" stroke-linecap="round" stroke-linejoin="round"/>
<path d="M6.44223 65L32.0493 52.5" stroke="#3398DC" stroke-width="3" stroke-linecap="round" stroke-linejoin="round"/>
<path d="M33.3174 99.3953L51.8183 79" stroke="#3398DC" stroke-width="3" stroke-linecap="round" stroke-linejoin="round"/>
<path d="M2.54923 56C-0.450775 58 3.94234 67 7.94228 66M30.4422 42C26.9422 45 31.4422 54 35.9422 52.5" stroke="#3398DC" stroke-width="3" stroke-linecap="round" stroke-linejoin="round"/>
<path d="M26.0493 93C24.0493 95.5 31.0707 102.713 34.5493 100.5M46.9859 69.7389C44.6139 73.6915 51.7285 80.8072 55.5234 77.9614" stroke="#3398DC" stroke-width="3" stroke-linecap="round" stroke-linejoin="round"/>
</svg>
