<svg width="65" height="60" viewBox="0 0 65 60" fill="none" xmlns="http://www.w3.org/2000/svg">
<path d="M7.85178 17.7668C7.95511 17.2467 10.95 13.5684 12.2014 11.7827L13.4657 10.6822L18.3436 7.26273C18.5394 7.16119 18.973 7.09441 19.1415 7.63963C19.352 8.32115 21.2203 7.79698 21.2988 6.71844C21.3616 5.8556 19.0741 5.81308 17.9225 5.89967L13.0353 8.82974L6.90424 3.45986C6.85407 2.54689 6.67394 0.683272 6.35478 0.532511C5.95583 0.344059 3.58844 -0.177365 2.07783 1.35719C0.535663 2.87863 0.756359 4.78963 1.22183 5.39959C1.59421 5.88756 3.33577 6.02176 4.16 6.02786L9.5998 12.2624L6.60123 17.0219C6.34285 18.2838 6.16736 20.7063 7.53245 20.3C8.89755 19.8938 8.75136 18.5821 8.22322 18.2743C7.97173 18.1277 7.7552 18.2528 7.85178 17.7668Z" fill="white"/>
<path fill-rule="evenodd" clip-rule="evenodd" d="M7.11451 20.2262C7.21771 20.2508 7.34495 20.247 7.50223 20.2002C8.14928 20.0077 8.42286 19.6084 8.48401 19.2336C8.54728 18.8459 8.38639 18.4902 8.16992 18.364C8.1183 18.334 8.0676 18.3172 8.01465 18.301C8.01004 18.2996 8.00526 18.2982 8.00033 18.2967C7.95463 18.283 7.89657 18.2656 7.84928 18.2349C7.78721 18.1945 7.74571 18.1345 7.73022 18.0488C7.71607 17.9706 7.72373 17.8719 7.74863 17.7466C7.75788 17.7 7.78084 17.6451 7.80967 17.5873C7.83943 17.5277 7.87919 17.4578 7.92714 17.3795C8.02311 17.2228 8.15496 17.0274 8.31288 16.8037C8.6289 16.3562 9.05304 15.7906 9.51209 15.1867C9.72682 14.9042 9.94916 14.6133 10.1718 14.3221C10.9026 13.3661 11.6366 12.4059 12.115 11.7233L12.1223 11.7128L13.4004 10.6003L18.2886 7.17364L18.2948 7.17041C18.4081 7.11163 18.5925 7.06075 18.7787 7.10765C18.9742 7.15686 19.149 7.30789 19.2421 7.60911C19.2781 7.7258 19.3871 7.80504 19.5716 7.83177C19.7558 7.85846 19.9936 7.82736 20.2339 7.74109C20.7207 7.56629 21.1591 7.18975 21.1939 6.71092C21.2054 6.55256 21.1144 6.41943 20.9083 6.3052C20.7012 6.19034 20.3999 6.10915 20.0501 6.05596C19.3631 5.9515 18.5266 5.96027 17.9554 6.00168L13.0236 8.95851L6.80166 3.50901L6.79926 3.46549C6.77429 3.01103 6.71696 2.3204 6.62642 1.72587C6.58108 1.42816 6.52792 1.15799 6.46738 0.954557C6.43703 0.852583 6.4059 0.771118 6.37486 0.712498C6.34163 0.649741 6.31726 0.63016 6.30954 0.626515C6.22244 0.585368 6.01052 0.519441 5.71283 0.468707C5.41758 0.418392 5.04471 0.384202 4.63805 0.402761C3.82398 0.439915 2.88377 0.687693 2.15315 1.42989L2.15208 1.43098C1.39928 2.17367 1.07864 3.00905 1.00158 3.73112C0.923932 4.45879 1.09426 5.05959 1.30576 5.33675C1.37955 5.43344 1.53339 5.5249 1.75769 5.60469C1.97785 5.68301 2.2493 5.74447 2.53857 5.7916C3.11676 5.88581 3.75254 5.92064 4.16082 5.92366L4.20845 5.92401L9.73011 12.2524L6.70059 17.061C6.57402 17.6867 6.47099 18.5838 6.56234 19.2729C6.60875 19.623 6.70317 19.9013 6.85309 20.0671C6.92621 20.148 7.01219 20.2019 7.11451 20.2262ZM6.3538 19.3001C6.25712 18.5708 6.36808 17.6366 6.4982 17.0011L6.50198 16.9827L9.46956 12.2724L4.1115 6.13152C3.69485 6.12619 3.07399 6.08999 2.50444 5.99719C2.20874 5.94902 1.92347 5.88505 1.6866 5.80078C1.45387 5.71799 1.25037 5.60968 1.13797 5.46239C0.884005 5.12959 0.71124 4.46991 0.792415 3.70922C0.874164 2.94313 1.21412 2.06253 2.00308 1.28391C2.783 0.491959 3.78154 0.233279 4.62837 0.194629C5.05225 0.175282 5.44045 0.210873 5.74849 0.263371C6.0541 0.315453 6.28771 0.385372 6.40008 0.438451C6.47215 0.472496 6.52322 0.544132 6.56113 0.615715C6.60122 0.691434 6.63693 0.787431 6.66913 0.895639C6.73369 1.11257 6.78854 1.39363 6.8344 1.69479C6.9234 2.2792 6.98045 2.95226 7.00684 3.4106L13.0471 8.70092L17.8895 5.79765L17.9145 5.79577C18.4946 5.75215 19.3631 5.7407 20.082 5.85002C20.4402 5.9045 20.771 5.99031 21.0111 6.12339C21.2523 6.2571 21.4236 6.45285 21.4037 6.7259C21.3601 7.32562 20.8251 7.75043 20.3055 7.93697C20.0426 8.03137 19.7689 8.07093 19.5412 8.03793C19.3137 8.00498 19.1102 7.89416 19.041 7.67009C18.9656 7.4261 18.8394 7.3379 18.7269 7.30958C18.6081 7.27967 18.481 7.31069 18.3983 7.35198L13.531 10.7641L12.2805 11.8525C11.7992 12.5384 11.0649 13.499 10.3372 14.4509C10.1151 14.7414 9.89361 15.0311 9.68012 15.312C9.22111 15.9159 8.79894 16.4789 8.48524 16.9232C8.32831 17.1454 8.19945 17.3366 8.10697 17.4876C8.06069 17.5631 8.02429 17.6274 7.99822 17.6796C7.97121 17.7337 7.95866 17.7684 7.955 17.7869C7.93161 17.9046 7.93011 17.9725 7.93726 18.0121C7.94307 18.0443 7.95331 18.0533 7.96473 18.0607C7.98551 18.0742 8.01453 18.083 8.07347 18.101L8.07643 18.1019C8.13178 18.1187 8.20247 18.1413 8.27659 18.1845C8.58826 18.3661 8.76453 18.8202 8.69165 19.2669C8.61666 19.7265 8.28078 20.1861 7.56274 20.3998C7.37875 20.4545 7.21285 20.4639 7.06538 20.4288C6.91701 20.3935 6.79476 20.3149 6.6964 20.2061C6.50337 19.9926 6.40186 19.6626 6.3538 19.3001Z" fill="white"/>
<path fill-rule="evenodd" clip-rule="evenodd" d="M15.3734 10.9226L14.5057 10.1024L14.6509 9.95168L15.5186 10.7719L15.3734 10.9226Z" fill="white"/>
<path fill-rule="evenodd" clip-rule="evenodd" d="M11.4947 14.388L10.7677 13.6671L10.9164 13.5196L11.6434 14.2405L11.4947 14.388Z" fill="white"/>
<path d="M57.223 17.6124C57.1355 17.0896 54.2535 13.3237 53.0569 11.5015L51.8266 10.3639L47.0547 6.80071C46.862 6.69339 46.4306 6.61373 46.2457 7.15369C46.0145 7.82863 44.163 7.24907 44.1173 6.16868C44.0807 5.30436 46.3685 5.32997 47.5169 5.45082L52.313 8.52508L58.6042 3.34019C58.6821 2.42913 58.9187 0.571714 59.2423 0.430525C59.6468 0.254039 62.0289 -0.196659 63.4923 1.38218C64.9876 2.94886 64.709 4.85243 64.2252 5.44825C63.8382 5.92491 62.0933 6.00719 61.2693 5.98874L55.6428 12.0585L58.4955 16.9051C58.7155 18.1742 58.8174 20.6007 57.4653 20.154C56.1131 19.7073 56.299 18.4006 56.8363 18.1087C57.0921 17.9696 57.3047 18.1011 57.223 17.6124Z" fill="white"/>
<path fill-rule="evenodd" clip-rule="evenodd" d="M57.8851 20.0928C57.7812 20.1142 57.6541 20.1067 57.4984 20.0552C56.8574 19.8435 56.5961 19.4362 56.5463 19.0598C56.4949 18.6704 56.6665 18.3197 56.8867 18.2C56.9392 18.1715 56.9904 18.1562 57.0438 18.1416C57.0484 18.1404 57.0533 18.1391 57.0582 18.1378C57.1043 18.1254 57.1629 18.1097 57.2111 18.0804C57.2744 18.0419 57.3177 17.9832 57.3358 17.898C57.3523 17.8202 57.3476 17.7214 57.3265 17.5954C57.3187 17.5486 57.2974 17.4929 57.2703 17.4343C57.2424 17.3738 57.2048 17.3028 57.1592 17.2231C57.0681 17.0637 56.9422 16.8644 56.7911 16.6361C56.4888 16.1794 56.0821 15.6014 55.6415 14.9841C55.4355 14.6953 55.2221 14.398 55.0084 14.1002C54.3069 13.1229 53.6023 12.1413 53.1449 11.4447L53.1379 11.4341L51.8941 10.284L47.1122 6.71334L47.106 6.70993C46.9945 6.6478 46.8118 6.59146 46.6243 6.63279C46.4274 6.67616 46.2481 6.82191 46.1459 7.12023C46.1063 7.23579 45.995 7.31174 45.8098 7.33297C45.6248 7.35417 45.3881 7.316 45.1506 7.22261C44.6693 7.0334 44.2425 6.64397 44.2222 6.16432C44.2155 6.00569 44.3105 5.87533 44.52 5.76729C44.7305 5.65865 45.0341 5.58647 45.3854 5.54372C46.0752 5.45975 46.9111 5.49343 47.4807 5.55183L52.3206 8.65418L58.7051 3.39241L58.7088 3.34899C58.7476 2.89547 58.8258 2.20686 58.9344 1.61529C58.9887 1.31906 59.0501 1.0506 59.1168 0.849066C59.1502 0.748041 59.1838 0.667541 59.2166 0.609871C59.2517 0.548132 59.2767 0.529286 59.2845 0.525872C59.3728 0.487337 59.5866 0.427748 59.8857 0.385903C60.1824 0.344401 60.5561 0.321329 60.962 0.35199C61.7746 0.413369 62.7068 0.68903 63.4146 1.45265L63.4157 1.45377C64.1456 2.21854 64.4407 3.06308 64.4958 3.78713C64.5514 4.51678 64.3629 5.11223 64.1431 5.38297C64.0664 5.47742 63.9098 5.56426 63.6832 5.63734C63.4608 5.70907 63.1876 5.76242 62.897 5.80091C62.3162 5.87786 61.6797 5.89374 61.2715 5.8846L61.2239 5.88354L55.5127 12.0446L58.3949 16.9412C58.5024 17.5705 58.5782 18.4703 58.466 19.1563C58.4089 19.5049 58.3061 19.7802 58.1512 19.9415C58.0757 20.0202 57.9881 20.0715 57.8851 20.0928ZM58.6736 19.1897C58.7923 18.4636 58.7098 17.5266 58.599 16.8875L58.5958 16.8689L55.7725 12.0724L61.3145 6.09384C61.7311 6.10092 62.3528 6.08322 62.9249 6.00743C63.2219 5.96808 63.509 5.91264 63.7483 5.83546C63.9835 5.75963 64.1901 5.65743 64.307 5.51355C64.5709 5.18846 64.7636 4.53422 64.7056 3.77146C64.6471 3.00328 64.334 2.11296 63.569 1.3112C62.8135 0.496384 61.8233 0.208089 60.978 0.144242C60.5549 0.112281 60.1658 0.136297 59.8563 0.179598C59.5493 0.222557 59.3136 0.285487 59.1997 0.335198C59.1266 0.367081 59.0734 0.437163 59.0333 0.507587C58.991 0.582077 58.9524 0.676968 58.9169 0.784166C58.8458 0.99908 58.7824 1.27838 58.7274 1.57804C58.6207 2.15953 58.5433 2.83059 58.503 3.28793L52.305 8.396L47.5528 5.34986L47.5279 5.34723C46.9494 5.28637 46.0816 5.24906 45.3597 5.33692C45 5.3807 44.6668 5.45663 44.4228 5.5825C44.1777 5.70897 44.0005 5.89952 44.012 6.17305C44.0375 6.77379 44.5593 7.21434 45.073 7.41627C45.3329 7.51846 45.6053 7.56615 45.8339 7.53995C46.0623 7.51378 46.2691 7.40907 46.3451 7.18716C46.4278 6.94553 46.5567 6.86112 46.6699 6.83617C46.7896 6.80981 46.9157 6.8446 46.9971 6.88834L51.7587 10.4438L52.9756 11.569C53.4358 12.2689 54.1406 13.2509 54.8392 14.2241C55.0523 14.5211 55.2649 14.8172 55.4698 15.1043C55.9103 15.7216 56.3152 16.297 56.6152 16.7504C56.7654 16.9772 56.8883 17.1721 56.9762 17.3258C57.0202 17.4027 57.0546 17.468 57.0791 17.521C57.1044 17.5759 57.1159 17.6109 57.119 17.6295C57.1388 17.7478 57.1383 17.8158 57.1299 17.8551C57.1231 17.8871 57.1126 17.8958 57.101 17.9029C57.0798 17.9158 57.0505 17.9237 56.9911 17.9399L56.9881 17.9407C56.9322 17.9559 56.8609 17.9764 56.7855 18.0173C56.4685 18.1896 56.2785 18.6383 56.3378 19.0869C56.3988 19.5485 56.7206 20.0179 57.4318 20.2529C57.6141 20.3131 57.7796 20.3274 57.9281 20.2967C58.0774 20.2659 58.202 20.1909 58.3036 20.0851C58.5031 19.8774 58.6145 19.5506 58.6736 19.1897Z" fill="white"/>
<path fill-rule="evenodd" clip-rule="evenodd" d="M53.6566 14.1195L54.3835 13.3986L54.5322 13.5461L53.8053 14.267L53.6566 14.1195Z" fill="white"/>
<path fill-rule="evenodd" clip-rule="evenodd" d="M50.029 10.2727L50.756 9.67196L50.8906 9.8322L50.1637 10.433L50.029 10.2727Z" fill="white"/>
<path d="M50.9444 36.7559C49.8652 29.3612 50.1367 20.8341 51.7925 17.0736L47.0674 11.9131C43.2308 12.6331 34.9519 14.0733 32.5288 14.0733C30.1057 14.0733 21.9075 12.9532 18.1113 12.3931L13.3863 17.0736C16.1728 21.9942 15.6236 29.939 14.4767 36.7559C13.3863 43.2367 16.294 49.3574 22.9575 50.6775C27.1156 51.5012 32.2864 56.0781 32.6498 56.4382C33.0133 56.0781 37.9807 51.5176 42.3423 50.6775C47.6731 49.6506 52.3981 46.7171 50.9444 36.7559Z" fill="white"/>
<path fill-rule="evenodd" clip-rule="evenodd" d="M32.5972 60L32.3744 59.7798C32.1842 59.5918 30.6362 58.2126 28.5503 56.7652C26.4581 55.3135 23.8695 53.8251 21.5896 53.3745C17.7361 52.6129 14.9564 50.4608 13.3038 47.5594C11.6549 44.6643 11.1369 41.0401 11.7624 37.3313C12.4084 33.5004 12.8841 29.3636 12.8082 25.4998C12.7323 21.631 12.1036 18.0672 10.5671 15.3603L10.4497 15.1535L16.0678 9.60143L16.2247 9.62453C18.3665 9.93977 21.7504 10.4127 24.9399 10.8067C28.1388 11.2018 31.116 11.5142 32.4605 11.5142C33.7984 11.5142 36.7926 11.1137 40.0219 10.6053C43.2392 10.0989 46.6567 9.49094 48.8209 9.0857L48.9943 9.05323L54.5867 15.1468L54.5048 15.3323C53.5943 17.3951 53.0515 20.8077 52.8938 24.7718C52.7365 28.7255 52.9635 33.1911 53.5702 37.338C54.3981 42.9981 53.4758 46.7281 51.522 49.1932C49.5721 51.6535 46.6442 52.7905 43.6033 53.3749C41.2089 53.835 38.6204 55.3235 36.5595 56.7711C34.5049 58.2142 33.0133 59.5888 32.82 59.7798L32.5972 60ZM36.1945 56.2612C38.2726 54.8016 40.9518 53.2477 43.4831 52.7612C46.4625 52.1887 49.2128 51.0947 51.0257 48.8073C52.8346 46.5248 53.7595 42.9907 52.9457 37.4276C52.3335 33.2431 52.1045 28.7392 52.2633 24.7472C52.4172 20.8779 52.9366 17.4545 53.8463 15.2693L48.7647 9.73229C46.5898 10.1379 43.261 10.7283 40.1209 11.2226C36.908 11.7284 33.859 12.1392 32.4605 12.1392C31.0685 12.1392 28.0482 11.8206 24.8619 11.4269C21.7431 11.0417 18.4402 10.5813 16.2889 10.2658L11.2329 15.2624C12.7581 18.0703 13.3642 21.6699 13.4391 25.4877C13.5161 29.4056 13.034 33.5847 12.3847 37.4343C11.7788 41.0274 12.287 44.5021 13.8534 47.2523C15.4163 49.9963 18.0411 52.0358 21.713 52.7616C24.129 53.2391 26.8081 54.7931 28.9123 56.2532C30.6651 57.4695 32.0499 58.6426 32.5951 59.13C33.1256 58.6444 34.4653 57.4758 36.1945 56.2612Z" fill="white"/>
<path d="M10.1153 56.5581C10.8907 56.2701 15.648 53.1177 17.748 51.6376L14.1134 48.3972C12.4576 51.2375 9.33988 56.8462 10.1153 56.5581Z" fill="white"/>
<path fill-rule="evenodd" clip-rule="evenodd" d="M10.0986 56.4527C10.2913 56.3754 10.7141 56.1356 11.2843 55.7873C11.8709 55.4289 12.603 54.9622 13.377 54.4579C14.8734 53.4829 16.5242 52.3688 17.5799 51.628L14.1394 48.5607C13.3154 49.9776 12.1615 52.0237 11.2961 53.6983C10.8515 54.5585 10.4849 55.3174 10.2778 55.8419C10.1732 56.1067 10.1135 56.3017 10.1009 56.4178C10.0995 56.4314 10.0987 56.443 10.0986 56.4527ZM11.1089 53.6033C11.9995 51.8799 13.1938 49.766 14.0222 48.3451L14.0871 48.2338L17.9158 51.6471L17.8089 51.7225C16.7575 52.4635 15.0421 53.6223 13.4926 54.632C12.7178 55.1368 11.9838 55.6047 11.3947 55.9646C10.8102 56.3217 10.3576 56.5793 10.152 56.6557C10.1189 56.668 10.08 56.6768 10.0395 56.6714C9.99508 56.6654 9.95631 56.6431 9.92945 56.6071C9.90505 56.5744 9.895 56.5366 9.89089 56.5036C9.88667 56.4698 9.88772 56.4331 9.8918 56.3955C9.90773 56.2489 9.97735 56.0308 10.0819 55.766C10.2931 55.2311 10.6639 54.4643 11.1089 53.6033Z" fill="white"/>
<path d="M9.99399 56.5582L15.6883 50.1974L17.5056 51.6376L9.99399 56.5582Z" fill="#2577A9"/>
<path fill-rule="evenodd" clip-rule="evenodd" d="M10.052 56.6451L9.91533 56.489L15.6759 50.0542L17.6841 51.6456L10.052 56.6451ZM17.3272 51.6296L15.7007 50.3406L10.6042 56.0335L17.3272 51.6296Z" fill="white"/>
<path d="M55.5992 56.6542C54.8303 56.3495 50.1434 53.0953 48.0764 51.5702L51.7814 48.409C53.3744 51.2844 56.3681 56.9589 55.5992 56.6542Z" fill="white"/>
<path fill-rule="evenodd" clip-rule="evenodd" d="M55.618 56.5491C55.4271 56.4677 55.0096 56.2189 54.4472 55.8583C53.8686 55.4873 53.147 55.005 52.3843 54.4841C50.9096 53.4771 49.2837 52.3277 48.2445 51.5642L51.7516 48.5719C52.5443 50.0062 53.653 52.0767 54.4813 53.7695C54.9069 54.6392 55.2568 55.4058 55.4523 55.9346C55.551 56.2016 55.6064 56.3979 55.6165 56.5142C55.6176 56.5278 55.6181 56.5394 55.618 56.5491ZM54.6706 53.6787C53.8181 51.9365 52.6704 49.7973 51.8735 48.3589L51.8111 48.2461L47.9083 51.5761L48.0135 51.6538C49.0483 52.4173 50.7379 53.6128 52.2649 54.6556C53.0284 55.177 53.7519 55.6607 54.3329 56.0332C54.9094 56.4028 55.3562 56.6701 55.5601 56.7509C55.593 56.7639 55.6317 56.7736 55.6722 56.769C55.7168 56.764 55.7561 56.7425 55.7837 56.7071C55.8088 56.6749 55.8197 56.6374 55.8246 56.6045C55.8295 56.5708 55.8293 56.5341 55.826 56.4964C55.8133 56.3495 55.7485 56.13 55.6498 55.8629C55.4504 55.3236 55.0965 54.549 54.6706 53.6787Z" fill="white"/>
<path d="M55.7205 56.6568L50.1674 50.1748L48.3188 51.5755L55.7205 56.6568Z" fill="#2577A9"/>
<path fill-rule="evenodd" clip-rule="evenodd" d="M55.6605 56.7424L55.8006 56.5894L50.1828 50.0319L48.1401 51.5796L55.6605 56.7424ZM48.4973 51.5713L50.1517 50.3177L55.1219 56.1192L48.4973 51.5713Z" fill="white"/>
<path d="M22.2734 20.158L24.4458 22.5657L24.3771 42.1278L22.1883 44.4006L30.9114 44.4306L28.9809 42.1437L29.0497 22.5816L30.9966 20.188L22.2734 20.158Z" fill="#2577A9"/>
<path d="M34.0254 20.1985L36.1977 22.6063L36.129 42.1684L33.9402 44.4411L42.6634 44.4712L40.7329 42.1842L40.8016 22.6221L42.7485 20.2285L34.0254 20.1985Z" fill="#2577A9"/>
<path d="M29.8295 33.3001C31.9343 34.9334 34.9952 34.318 36.3701 33.8027L36.3777 31.6424C36.376 32.1225 35.0655 32.718 29.8366 31.2599C24.6078 29.8017 22.5616 32.875 22.1921 34.5939C23.9332 33.3198 27.6546 31.6124 29.8295 33.3001Z" fill="#2577A9"/>
<path d="M2.56201 1.75354C3.4611 0.817423 4.76453 0.600043 5.47329 1.26801C6.18205 1.93597 6.02777 3.23633 5.12868 4.17245C4.22959 5.10856 2.92617 5.32594 2.2174 4.65798C1.50864 3.99001 1.66293 2.68965 2.56201 1.75354Z" fill="#2577A9"/>
<path d="M62.7765 1.4619C63.8147 2.25246 64.171 3.51857 63.5725 4.28984C62.9739 5.0611 61.6471 5.04546 60.609 4.2549C59.5708 3.46433 59.2145 2.19822 59.813 1.42696C60.4116 0.655692 61.7384 0.671335 62.7765 1.4619Z" fill="#2577A9"/>
</svg>
