<svg width="252" height="181" viewBox="0 0 252 181" fill="none" xmlns="http://www.w3.org/2000/svg">
<path d="M65.6105 17.4417L7.61051 39.4417C5.61051 40.275 1.51051 42.9417 1.11051 46.9417C0.845633 49.5905 0.858471 54.8702 0.945766 59.4417M87.6104 101.442C88.277 101.108 87.6104 101.442 75.6104 105.442C63.6104 109.442 51.9437 105.775 47.6104 103.442L1.11051 65.4417C1.05421 63.9216 0.990299 61.7738 0.945766 59.4417M0.945766 59.4417L45.1104 93.4417C49.6104 96.4417 62.0104 101.042 75.6104 95.4417L120.11 81.9417" stroke="#919090" stroke-linecap="round" stroke-linejoin="round"/>
<path d="M97.1104 6.94172H117.61C119.777 5.44172 126.31 2.24172 135.11 1.44172C143.91 0.641721 165.777 1.10839 175.61 1.44172C190.11 2.60838 223.51 10.8417 241.11 34.4417M241.11 34.4417C242.451 35.9043 245.253 39.6128 248.071 44.9417M241.11 34.4417L248.071 44.9417M241.11 34.4417L162.61 57.9417M251.11 51.4417L239.11 54.9417M251.11 51.4417C250.143 49.0769 249.106 46.8999 248.071 44.9417M251.11 51.4417L248.071 44.9417M248.071 44.9417L175.61 67.4417" stroke="#919090" stroke-linecap="round" stroke-linejoin="round"/>
<path d="M2.11035 46.4417L43.1104 78.9417C48.1104 82.4417 61.7104 88.2417 76.1104 83.4417C90.5104 78.6417 110.11 72.9417 117.61 70.9417" stroke="#919090" stroke-linecap="round" stroke-linejoin="round"/>
<path d="M198.11 157.942C203.11 163.608 213.01 175.742 212.61 178.942" stroke="#3399DB" stroke-width="3" stroke-linecap="round" stroke-linejoin="round"/>
<path d="M170.61 124.442C170.777 127.942 171.81 135.342 174.61 136.942" stroke="#3399DB" stroke-width="3" stroke-linecap="round" stroke-linejoin="round"/>
<path d="M148.61 105.942C143.61 105.942 132.91 107.142 130.11 111.942" stroke="#3399DB" stroke-width="3" stroke-linecap="round" stroke-linejoin="round"/>
<path d="M106.11 99.4417C100.61 99.6084 89.0104 102.742 86.6104 113.942V135.442M86.6104 135.442L92.6104 133.942M86.6104 135.442L82.1104 131.942V111.442C82.9437 105.442 90.6104 93.4417 110.61 93.4417" stroke="#919090" stroke-linecap="round" stroke-linejoin="round"/>
<path d="M97.6104 146.942V126.942C102.254 116.659 116.715 99.653 132.61 116.442M97.6104 146.942L133.11 135.442V117.442C133.032 117.357 132.61 116.442 132.61 116.442M97.6104 146.942L92.6104 143.442V124.442C96.6104 115.442 110.61 98.4417 125.61 107.942C127.777 110.108 132.21 114.842 132.61 116.442" stroke="#919090" stroke-linecap="round" stroke-linejoin="round"/>
<path d="M114.61 104.442C117.777 99.775 130.01 89.2417 153.61 84.4417L242.11 58.4417M242.11 58.4417V69.9417L153.61 96.9417C145.777 98.775 129.31 103.542 126.11 107.942M242.11 58.4417L235.61 51.9417L134.61 81.9417C124.444 84.275 103.91 93.0417 103.11 109.442" stroke="#919090" stroke-linecap="round" stroke-linejoin="round"/>
<path d="M65.6104 14.9417L93.6104 4.44171L176.496 68.4417M65.6104 14.9417V28.9417L109.11 62.4417C119.51 67.6417 120.777 78.275 120.11 82.9417L123.61 85.4417M65.6104 14.9417L143.11 78.9417M212.11 95.9417V117.942L206.61 120.442M212.11 95.9417L178.11 108.442M212.11 95.9417L196.61 83.9734M206.61 120.442V106.942L193.61 111.608M206.61 120.442L193.61 111.608M178.11 129.442L187.11 126.942V113.942L193.61 111.608M178.11 129.442L142.11 100.942M178.11 129.442V108.442M160.61 94.9417L178.11 108.442" stroke="#919090" stroke-linecap="round" stroke-linejoin="round"/>
<path d="M119.11 122.442C119.11 125.037 117.445 126.942 115.61 126.942C113.776 126.942 112.11 125.037 112.11 122.442C112.11 119.847 113.776 117.942 115.61 117.942C117.445 117.942 119.11 119.847 119.11 122.442Z" stroke="#919090"/>
<path d="M128.11 130.942C128.11 131.816 127.856 132.587 127.471 133.126C127.085 133.666 126.597 133.942 126.11 133.942C125.623 133.942 125.135 133.666 124.749 133.126C124.364 132.587 124.11 131.816 124.11 130.942C124.11 130.067 124.364 129.297 124.749 128.757C125.135 128.217 125.623 127.942 126.11 127.942C126.597 127.942 127.085 128.217 127.471 128.757C127.856 129.297 128.11 130.067 128.11 130.942Z" stroke="#919090"/>
<path d="M126.11 129.942C129.277 133.942 137.71 142.842 148.11 142.442C158.51 142.042 164.777 145.608 166.61 147.442" stroke="#3399DB" stroke-width="3" stroke-linecap="round" stroke-linejoin="round"/>
<path fill-rule="evenodd" clip-rule="evenodd" d="M125.216 129.049C124.861 129.448 124.61 130.071 124.61 130.942C124.61 131.812 124.861 132.435 125.216 132.834C125.568 133.23 126.054 133.442 126.61 133.442V133.942C125.786 133.942 125.022 134.12 124.469 133.499C123.919 132.881 123.61 132.004 123.61 130.942C123.61 129.879 123.919 129.002 124.469 128.384C125.022 127.763 125.786 127.942 126.61 127.942V128.442C126.054 128.442 125.568 128.653 125.216 129.049Z" fill="#919090"/>
<path d="M151.11 76.4417C151.277 74.6084 152.51 70.7417 156.11 69.9417C159.71 69.1417 162.777 71.775 163.11 72.4417" stroke="#919090" stroke-linecap="round" stroke-linejoin="round"/>
<path fill-rule="evenodd" clip-rule="evenodd" d="M156.61 75.4417L147.267 78.5598L147.11 77.9417L152.11 75.9417L157.61 74.9417L156.61 75.4417Z" fill="#919090"/>
<path d="M153.11 71.9417C152.444 72.775 151.11 74.8417 151.11 76.4417" stroke="#919090" stroke-linecap="round" stroke-linejoin="round"/>
<rect x="163.446" y="152.618" width="28.5767" height="28.5767" rx="3.5" transform="rotate(-48.9668 163.446 152.618)" fill="#3399DB" stroke="#3399DB" stroke-width="3"/>
<path d="M192.567 94.782C192.714 95.3308 192.414 96.0907 191.478 96.9046C190.571 97.6941 189.184 98.4188 187.527 98.8632C185.871 99.3076 184.307 99.3748 183.126 99.1454C181.909 98.9088 181.269 98.4013 181.122 97.8525C180.974 97.3038 181.275 96.5439 182.21 95.7299C183.117 94.9404 184.505 94.2158 186.161 93.7714C187.818 93.3269 189.382 93.2597 190.562 93.4892C191.779 93.7257 192.42 94.2332 192.567 94.782Z" stroke="#919090"/>
<path d="M153.11 74.9417C159.11 70.9417 187.61 70.9417 186.61 97.9417" stroke="#3399DB" stroke-width="3" stroke-linecap="round" stroke-linejoin="round"/>
<path fill-rule="evenodd" clip-rule="evenodd" d="M183.055 98.4175C184.236 98.5631 185.806 98.408 187.481 97.9588C189.168 97.506 190.457 96.9454 191.259 96.3281C192.055 95.7147 192.278 95.1318 192.127 94.5713L192.61 94.4417C192.909 95.554 192.828 96.3818 191.869 97.1203C190.915 97.8549 188.85 98.975 187.11 99.4417C185.358 99.912 184.282 99.5762 182.932 99.4101C181.625 99.2491 180.92 98.5943 180.61 97.4417L181.093 97.3121C181.233 97.8323 181.831 98.2669 183.055 98.4175Z" fill="#919090"/>
</svg>
