<svg width="202" height="171" viewBox="0 0 202 171" fill="none" xmlns="http://www.w3.org/2000/svg">
<path d="M100.471 119.715C101.471 120.215 104.671 123.915 105.471 126.715" stroke="#3399DB" stroke-width="3"/>
<path d="M79.9707 61.2151C79.9707 58.7151 85.1707 54.3151 93.9707 54.7151" stroke="#3399DB" stroke-width="3"/>
<path d="M105.971 55.2151C114.471 55.2151 129.571 57.6151 127.971 85.2151C125.971 119.715 122.971 113.215 123.471 123.715" stroke="#3399DB" stroke-width="3"/>
<path d="M63.9707 60.7151V50.7151L97.9707 44.2151M97.9707 44.2151H105.471V63.7151C104.471 66.3818 101.571 70.1151 97.9707 63.7151M97.9707 44.2151V63.7151M97.9707 63.7151C95.804 63.0485 90.6707 61.7151 87.4707 61.7151" stroke="#919090"/>
<path d="M23.4707 82.2151C23.4707 87.9466 22.1974 93.1108 20.1639 96.8242C18.1202 100.556 15.3786 102.715 12.4707 102.715C9.56279 102.715 6.82118 100.556 4.77752 96.8242C2.74398 93.1108 1.4707 87.9466 1.4707 82.2151C1.4707 76.4836 2.74398 71.3195 4.77752 67.606C6.82118 63.8741 9.56279 61.7151 12.4707 61.7151C15.3786 61.7151 18.1202 63.8741 20.1639 67.606C22.1974 71.3195 23.4707 76.4836 23.4707 82.2151Z" stroke="#919090"/>
<path d="M12.9707 61.7151H86.9707M105.471 61.7151H136.971L143.971 64.7151H181.971C186.304 71.8818 191.871 89.5151 179.471 102.715H12.9707" stroke="#919090"/>
<path d="M181.471 18.2151L143.971 64.7151L136.971 61.7151L162.747 27.2151M181.471 18.2151V64.7151M181.471 18.2151H169.471L162.747 27.2151M162.747 27.2151V7.71511C164.321 3.71511 170.971 -2.68489 184.971 3.71511C198.971 10.1151 201.471 9.04844 200.971 7.71511V164.215C196.137 167.715 184.471 173.015 176.471 166.215C168.471 159.415 163.988 162.048 162.747 164.215V103.215" stroke="#919090"/>
<path d="M94.4707 54.7151C94.4707 55.5894 94.2168 56.3601 93.8316 56.8994C93.4457 57.4396 92.9577 57.7151 92.4707 57.7151C91.9837 57.7151 91.4957 57.4396 91.1098 56.8994C90.7246 56.3601 90.4707 55.5894 90.4707 54.7151C90.4707 53.8408 90.7246 53.0702 91.1098 52.5309C91.4957 51.9906 91.9837 51.7151 92.4707 51.7151C92.9577 51.7151 93.4457 51.9906 93.8316 52.5309C94.2168 53.0702 94.4707 53.8408 94.4707 54.7151Z" stroke="#919090"/>
<path d="M93.4707 108.715C93.4707 109.589 93.2168 110.36 92.8316 110.899C92.4457 111.44 91.9577 111.715 91.4707 111.715C90.9837 111.715 90.4957 111.44 90.1098 110.899C89.7246 110.36 89.4707 109.589 89.4707 108.715C89.4707 107.841 89.7246 107.07 90.1098 106.531C90.4957 105.991 90.9837 105.715 91.4707 105.715C91.9577 105.715 92.4457 105.991 92.8316 106.531C93.2168 107.07 93.4707 107.841 93.4707 108.715Z" stroke="#919090"/>
<path d="M97.4707 103.715V113.215L90.4707 123.215H77.9707L52.9707 102.715H48.9707V106.715L75.9707 132.215H91.4707L104.971 113.215L105.471 103.215" stroke="#919090"/>
<path d="M86.9707 103.215C86.9707 104.715 87.9709 108.215 92.9706 108.715" stroke="#3399DB" stroke-width="3"/>
<path d="M91.4707 111.715C92.8514 111.715 92.9707 110.648 92.9707 108.715C92.9707 106.782 92.8514 105.715 91.4707 105.715" stroke="#919090"/>
<rect x="99.9308" y="127.39" width="29" height="28.6227" rx="3.5" transform="rotate(-8.37649 99.9308 127.39)" fill="#3399DB" stroke="#3399DB"/>
</svg>
