<svg width="246" height="189" viewBox="0 0 246 189" fill="none" xmlns="http://www.w3.org/2000/svg">
<path d="M139.304 50.4996C141.137 48.1662 146.504 43.5996 153.304 43.9996C160.104 44.3996 168.137 44.1662 171.304 43.9996V58.4996H159.304C156.304 58.3329 149.904 58.4996 148.304 60.4996" stroke="#919090"/>
<path d="M155.804 43.9996L213.304 24.9996" stroke="#919090"/>
<path d="M171.304 39.4996V89.9996L171.804 39.9996C180.47 39.8329 198.704 41.5996 202.304 49.9996C206.804 60.4996 206.804 72.4996 230.804 82.4996C254.804 92.4996 241.804 101.5 241.304 149.5L171.304 128.5V115" stroke="#919090"/>
<path d="M84.8037 84.4996L75.3037 91.4996" stroke="#919090"/>
<path d="M96.8037 113L88.8037 116.5" stroke="#919090"/>
<path d="M161.804 103L173.304 96.9996C174.304 96.3329 176.704 95.0996 178.304 95.4996C179.904 95.8996 195.304 100.666 202.804 103C203.97 103.333 205.804 104.566 205.804 107C205.804 109.5 205.637 115.333 205.804 118" stroke="#919090"/>
<path d="M160.804 96.4996C160.804 96.4996 172.804 88.9996 175.804 88.9996C178.804 88.9996 206.804 99.9996 206.804 99.9996C207.804 100.166 209.804 101.3 209.804 104.5C209.804 107.7 209.804 112.833 209.804 115L204.804 119.5C203.97 120.166 201.704 121.1 199.304 119.5C196.904 117.9 182.804 112.5 182.804 112.5C182.804 112.5 179.004 110.5 175.804 112.5C172.604 114.5 163.137 119.333 158.804 121.5" stroke="#919090"/>
<path d="M141.083 146.647C118.12 169.291 77.5345 165.569 50.4233 138.077C23.3122 110.584 20.1579 69.9506 43.1206 47.3065C66.0833 24.6625 106.669 28.3842 133.78 55.8769C160.891 83.3695 164.045 124.003 141.083 146.647Z" stroke="#919090"/>
<path d="M145.804 141.5C169.019 118.607 165.45 77.1546 138.204 49.5258C105.804 18.4996 66.5191 23.6068 43.3042 46.4996" stroke="#919090"/>
<path d="M175.304 105.5C175.304 106.506 174.997 107.399 174.525 108.028C174.053 108.657 173.439 109 172.804 109C172.168 109 171.554 108.657 171.082 108.028C170.61 107.399 170.304 106.506 170.304 105.5C170.304 104.493 170.61 103.6 171.082 102.971C171.554 102.342 172.168 102 172.804 102C173.439 102 174.053 102.342 174.525 102.971C174.997 103.6 175.304 104.493 175.304 105.5Z" stroke="#919090"/>
<path d="M200.874 109.559C200.81 112.119 198.999 114.014 196.979 113.964C194.959 113.914 193.244 111.931 193.307 109.372C193.371 106.812 195.183 104.917 197.202 104.967C199.222 105.017 200.937 107 200.874 109.559Z" stroke="#919090"/>
<path d="M129.304 77.4996C129.304 82.7708 125.25 86.9996 120.304 86.9996C115.357 86.9996 111.304 82.7708 111.304 77.4996C111.304 72.2284 115.357 67.9996 120.304 67.9996C125.25 67.9996 129.304 72.2284 129.304 77.4996Z" stroke="#919090"/>
<path fill-rule="evenodd" clip-rule="evenodd" d="M175.597 123.756C179.397 115.963 176.107 109.229 170.774 105.308L171.05 103.884L171.921 102.694C177.921 107.106 182.967 115.487 178.293 125.071C176.005 129.762 171.44 134.525 163.83 139.077C156.216 143.633 145.472 148.027 130.688 151.949L129.919 149.05C144.535 145.172 154.993 140.868 162.29 136.503C169.592 132.134 173.647 127.754 175.597 123.756Z" fill="#3399DB"/>
<path d="M137.304 113.5C137.304 118.771 133.25 123 128.304 123C123.357 123 119.304 118.771 119.304 113.5C119.304 108.228 123.357 104 128.304 104C133.25 104 137.304 108.228 137.304 113.5Z" stroke="#919090"/>
<path d="M126.304 138.5C126.304 143.771 122.25 148 117.304 148C112.357 148 108.304 143.771 108.304 138.5C108.304 133.228 112.357 129 117.304 129C122.25 129 126.304 133.228 126.304 138.5Z" stroke="#919090"/>
<path d="M95.3037 140.5C95.3037 145.771 91.2504 150 86.3037 150C81.357 150 77.3037 145.771 77.3037 140.5C77.3037 135.228 81.357 131 86.3037 131C91.2504 131 95.3037 135.228 95.3037 140.5Z" stroke="#919090"/>
<path d="M71.3037 119.5C71.3037 124.771 67.2504 129 62.3037 129C57.357 129 53.3037 124.771 53.3037 119.5C53.3037 114.228 57.357 110 62.3037 110C67.2504 110 71.3037 114.228 71.3037 119.5Z" stroke="#919090"/>
<path d="M94.0692 97.4474C97.8104 104.703 96.0843 112.81 90.5285 115.674C84.9727 118.539 77.3677 115.244 73.6266 107.988C69.8854 100.732 71.6115 92.6254 77.1673 89.7608C82.7231 86.8962 90.3281 90.1916 94.0692 97.4474Z" stroke="#919090"/>
<path d="M96.6555 113.115C103.29 110.37 106.015 101.732 102.742 93.822C99.4692 85.912 91.438 81.7247 84.8037 84.4697" stroke="#919090"/>
<path d="M59.3037 86.4996C59.3037 91.7708 55.2504 95.9996 50.3037 95.9996C45.357 95.9996 41.3037 91.7708 41.3037 86.4996C41.3037 81.2284 45.357 76.9996 50.3037 76.9996C55.2504 76.9996 59.3037 81.2284 59.3037 86.4996Z" stroke="#919090"/>
<path d="M54.8037 94.4996C50.3854 94.4996 46.8037 90.694 46.8037 85.9996C46.8037 81.3052 49.3854 77.9996 53.8037 77.9996" stroke="#919090"/>
<path d="M69.8037 60.4996C66.2253 62.463 61.5898 60.8933 59.4501 56.9936C57.3104 53.0938 57.8947 49.2006 61.4731 47.2371" stroke="#919090"/>
<path d="M128.652 81.5764C124.717 83.7352 119.746 82.2387 117.549 78.2336C115.351 74.2286 116.103 70.147 120.037 67.9882" stroke="#919090"/>
<path d="M102.803 61.4995C98.8684 63.6584 93.8122 62.0066 91.5097 57.8102C89.2072 53.6138 89.8851 49.3974 93.8197 47.2385" stroke="#919090"/>
<path d="M136.035 118.276C132.101 120.435 127.041 118.777 124.735 114.573C122.428 110.369 123.103 106.147 127.037 103.988" stroke="#919090"/>
<path d="M125.035 143.276C121.101 145.435 116.041 143.777 113.735 139.573C111.428 135.369 112.103 131.147 116.037 128.988" stroke="#919090"/>
<path d="M94.7645 144.781C91.5291 146.556 87.099 144.701 84.8696 140.638C82.6402 136.575 82.9608 132.677 86.1962 130.901" stroke="#919090"/>
<path d="M70.4979 123.781C67.2625 125.556 62.8324 123.701 60.603 119.638C58.3735 115.575 58.6942 111.677 61.9296 109.901" stroke="#919090"/>
<path fill-rule="evenodd" clip-rule="evenodd" d="M128.913 123.655C126.651 129.103 125.201 135.692 124.797 140.135L121.81 139.864C122.239 135.14 123.755 128.253 126.142 122.504C127.335 119.633 128.78 116.959 130.479 114.974C132.164 113.005 134.147 111.568 136.664 111.552L136.797 113.045V114.479C135.531 114.487 134.183 115.259 132.758 116.924C131.346 118.574 130.046 120.928 128.913 123.655Z" fill="#3399DB"/>
<path d="M104.304 56.4996C104.304 61.7708 100.25 65.9996 95.3037 65.9996C90.357 65.9996 86.3037 61.7708 86.3037 56.4996C86.3037 51.2284 90.357 46.9996 95.3037 46.9996C100.25 46.9996 104.304 51.2284 104.304 56.4996Z" stroke="#919090"/>
<path d="M70.3037 56.4996C70.3037 61.7708 66.2504 65.9996 61.3037 65.9996C56.357 65.9996 52.3037 61.7708 52.3037 56.4996C52.3037 51.2284 56.357 46.9996 61.3037 46.9996C66.2504 46.9996 70.3037 51.2284 70.3037 56.4996Z" stroke="#919090"/>
<rect x="101.503" y="150.218" width="24.0107" height="24" rx="4.5" transform="rotate(-36.392 101.503 150.218)" fill="#3399DB" stroke="#3399DB"/>
<path d="M110.804 163.5C102.804 169.333 83.9037 181.3 72.3037 182.5" stroke="#3399DB" stroke-width="3"/>
</svg>
